<?xml version="1.0" standalone="no"?>
<!DOCTYPE svg PUBLIC "-//W3C//DTD SVG 1.1//EN" "http://www.w3.org/Graphics/SVG/1.1/DTD/svg11.dtd">
<svg xmlns="http://www.w3.org/2000/svg">
<metadata>Copyright (C) 2015 by original authors @ fontello.com</metadata>
<defs>
<font id="fontello" horiz-adv-x="1000" >
<font-face font-family="fontello" font-weight="400" font-stretch="normal" units-per-em="1000" ascent="850" descent="-150" />
<missing-glyph horiz-adv-x="1000" />
<glyph glyph-name="down_arrow" unicode="&#xe800;" d="m386 112l387 386-90 90-297-296-296 296-90-90 386-386z" horiz-adv-x="773" />
<glyph glyph-name="download" unicode="&#xe801;" d="m561 436h-125v-249h-93l156-187 156 187h-94v249z m298 24c-29 77-103 131-189 131-20 0-40-3-58-8-49 80-137 133-238 133-153 0-278-122-281-274-55-32-93-93-93-162 0-103 84-187 187-187h140l-52 63h-88c-69 0-125 55-125 124 0 59 42 109 97 121-2 11-3 23-3 35 0 120 98 218 218 218 98 0 182-66 209-155 24 19 54 30 87 30 72 0 132-54 139-124h1c69 0 125-56 125-125 0-69-56-124-125-124h-88l-52-63h140c103 0 187 84 187 187 0 86-58 159-138 180z" horiz-adv-x="1000" />
<glyph glyph-name="right_arrow" unicode="&#xe802;" d="m308 850l-116-117 383-383-383-383 116-117 500 500-500 500z" horiz-adv-x="1000" />
<glyph glyph-name="cancel" unicode="&#xe803;" d="m619 350l356 357c33 32 33 86 0 118-32 33-86 33-118 0l-357-356-356 356c-33 33-87 33-119 0-33-32-33-86 0-118l356-357-356-357c-33-32-33-86 0-118 32-33 86-33 119 0l356 356 357-356c32-33 86-33 118 0 33 32 33 86 0 118l-356 357z" horiz-adv-x="1000" />
<glyph glyph-name="tick" unicode="&#xe804;" d="m986 645l-47 46c-19 19-50 19-69 0l-486-485-254 254c-19 19-50 19-69 0l-47-46c-19-19-19-51 0-70l336-335c9-10 22-15 34-15s25 5 35 15l566 567c20 19 20 50 1 69z" horiz-adv-x="1000" />
<glyph glyph-name="left_arrow" unicode="&#xe805;" d="m192 350l500-500 117 117-384 383 384 383-117 117-500-500z" horiz-adv-x="1000" />
<glyph glyph-name="windy-rain-inv" unicode="&#xe806;" d="m0 318q0 12 9 21t22 9h250q14 0 23-9t8-21q0-14-9-23t-22-10h-250q-13 0-22 10t-9 23z m0 124q0 13 9 22t22 9h125q14 0 23-9t8-22q0-13-9-22t-22-10h-125q-13 0-22 10t-9 22z m63 125q0 13 8 22t23 9h125q13 0 22-9t9-22q0-13-9-22t-22-10h-125q-13 0-22 10t-9 22z m208-49q0 77 54 133t132 60q74 76 178 76t179-76q78-4 132-60t53-133q0-82-56-139t-139-57q-17 0-33 2-62-39-136-39t-135 39q-16-2-35-2-80 0-137 57t-57 139z m166-418q0 35 63 125l15-24q18-26 32-54 15-32 15-47 0-25-18-44t-44-19-44 19-19 44z m250-125q0 35 63 125l15-24q18-26 31-54 16-32 16-47 0-25-18-44t-44-19-44 19-19 44z" horiz-adv-x="1000" />
<glyph glyph-name="snow-inv" unicode="&#xe807;" d="m0 506q0 90 64 154t155 65q17 0 31-2 43 61 109 93 68 33 141 33t140-33q66-32 110-93 13 2 31 2 90 0 154-65t64-154-64-154-154-65q-42 0-78 14-88-76-203-76t-203 76q-37-14-78-14-90 0-155 65t-64 154z m348-544q3 15 15 21l35 21q-3 19 0 37l-35 20q-12 8-15 21t2 27q7 12 21 16t27-4l35-21q14 14 32 19v41q0 14 10 25t25 11 24-11 11-25v-41q17-5 31-19l35 21q14 8 28 4t20-16q7-13 3-27t-16-21l-35-20q4-18 0-37l35-21q12-6 16-21t-3-26q-7-12-21-16t-27 4l-35 20q-14-12-31-18v-41q0-15-11-25t-24-10-25 10-10 25v41q-17 6-32 18l-35-20q-13-7-27-4t-21 16q-6 12-2 26z m117 61q0-15 10-25t25-9 23 9q12 10 12 25t-11 24-24 10-25-10-10-24z" horiz-adv-x="1000" />
<glyph glyph-name="snow-heavy-inv" unicode="&#xe808;" d="m0 506q0 90 64 154t155 65q17 0 31-2 43 61 109 93 68 33 141 33t140-33q66-32 110-93 13 2 31 2 90 0 154-65t64-154-64-154-154-65q-42 0-78 14-88-76-203-76t-203 76q-37-14-78-14-90 0-155 65t-64 154z m60-392q-5 19 14 25l24 6q0 12 6 21l-18 18q-14 14 0 28 14 15 29 1l18-17q9 3 21 5l6 24q6 19 25 13t14-25l-6-23q5-3 8-6 4-5 8-10l23 8q20 3 26-16 6-19-16-25l-23-6q0-12-6-21l17-18q16-14 1-28-14-15-30-1l-16 17q-11-3-21-6l-8-23q-4-20-24-15-21 5-15 27l6 23q-7 4-16 16l-23-8q-20-3-24 16z m84 11q14-13 29 0 14 14-1 28-14 15-28 1-15-15 0-29z m204-163q3 15 15 21l35 21q-3 19 0 37l-35 20q-12 8-15 21t2 27q7 12 21 16t27-4l35-21q14 14 32 19v41q0 14 10 25t25 11 24-11 11-25v-41q17-5 31-19l35 21q14 8 28 4t20-16q7-13 3-27t-16-21l-35-20q4-18 0-37l35-21q12-6 16-21t-3-26q-7-12-21-16t-27 4l-35 20q-14-12-31-18v-41q0-15-11-25t-24-10-25 10-10 25v41q-17 6-32 18l-35-20q-13-7-27-4t-21 16q-6 12-2 26z m117 61q0-15 10-25t25-9 23 9q12 10 12 25t-11 24-24 10-25-10-10-24z m277 81q6 19 25 13l24-5q3 5 7 9 3 3 8 6l-6 24q-5 19 14 25t25-14l6-23q12-2 22-6l17 18q15 13 30-1 13-15 0-29l-18-17q6-10 6-22l23-6q20-5 15-25-5-19-24-16l-24 8q-8-12-16-15l6-24q6-21-14-26-21-6-25 14l-7 24q-13 2-22 6l-16-18q-15-14-30 1-14 14 1 29l18 17q-6 9-6 22l-24 5q-21 6-15 26z m85-41q14-14 29 0 14 13-1 27-14 16-28 1-15-15 0-28z" horiz-adv-x="1000" />
<glyph glyph-name="hail-inv" unicode="&#xe809;" d="m0 506q0 90 64 154t155 65q17 0 31-2 43 61 109 93 68 33 141 33t140-33q66-32 110-93 13 2 31 2 90 0 154-65t64-154-64-154-154-65q-42 0-78 14-88-76-203-76t-203 76q-37-14-78-14-90 0-155 65t-64 154z m125-344q0 26 19 44t43 19 43-20q20-17 20-43t-19-44-44-18-43 18-19 44z m125-250q0 26 18 44t44 19 43-20q20-17 20-43t-19-44-44-18-44 18-18 44z m187 188q0 25 19 44t44 18 43-19q19-18 19-43t-18-44-44-19-44 19-19 44z m188-188q0 26 18 44t44 19 43-20q20-17 20-43t-19-44-44-18-44 18-18 44z m125 250q0 26 18 44t44 19 43-20q20-17 20-43t-19-44-44-18-44 18-18 44z" horiz-adv-x="1000" />
<glyph glyph-name="clouds-inv" unicode="&#xe80a;" d="m2 234q0 90 64 155t155 64q14 0 31-4 0 1 1 3t1 3q-2 16-2 29 0 70 51 122 50 52 123 52 8 0 13-2 72 90 188 90t187-90q5 2 14 2 72 0 123-52 50-52 50-122 0-68-46-117 46-60 46-132 0-92-64-156-64-63-154-63-42 0-78 14-88-76-203-76t-203 76q-37-14-78-14-91 0-155 63-64 64-64 155z" horiz-adv-x="1000" />
<glyph glyph-name="clouds-flash-inv" unicode="&#xe80b;" d="m0 336q0 90 64 154t155 65q17 0 31-2 1 4 4 4-4 18-4 29 0 72 51 123t123 51h13q73 89 188 89t187-89h14q72 0 123-51t50-123q0-66-46-117 46-59 46-133 0-90-64-154t-154-65q-42 0-78 14-82-72-193-74l-10-20 62-62-187-125 62 125-62 62 45 30q-72 19-123 64-37-14-78-14-90 0-155 65t-64 154z" horiz-adv-x="1000" />
<glyph glyph-name="temperature" unicode="&#xe80c;" d="m375 37q0 73 62 108v574q0 28 19 48 18 20 44 20t44-20q18-20 18-48v-574q63-35 63-108 0-50-37-87t-89-38q-52 0-88 38-36 37-36 87z" horiz-adv-x="1000" />
<glyph glyph-name="compass" unicode="&#xe80d;" d="m0 350q0 207 146 353t354 146 353-146 146-353-146-354-353-146-354 146-146 354z m125 0q0-154 110-265t265-110 263 109q112 112 112 266t-111 264-264 111-265-111-110-264z m187-188l125 250 250 125-125-250z" horiz-adv-x="1000" />
<glyph glyph-name="na" unicode="&#xe80e;" d="m102 180v343h62l80-117 64-101h2v218h69v-343h-63l-86 129-58 88h-2v-217h-68z m300-22l127 383h51l-127-383h-51z m186 22l121 343h70l119-343h-74l-22 70h-119l-23-70h-72z m113 127h84l-14 45-27 90h-2l-28-88z" horiz-adv-x="1000" />
<glyph glyph-name="celcius" unicode="&#xe80f;" d="m283 424q-13 28 0 58t41 40q29 12 59-1t43-40q5-12 5-28t-5-29q-12-27-42-39-31-12-60 0t-41 39z m37 29q0-13 10-23t24-10 25 10 9 23-9 24-25 9-24-9-10-24z m166-170v129q0 51 40 81t91 30q69 0 105-33l-33-52q-27 23-70 23-26 0-45-15t-20-47v-100q0-32 20-47t45-15q38 0 72 23l31-53q-43-35-103-35-53 0-93 30t-40 81z" horiz-adv-x="1000" />
<glyph glyph-name="fahrenheit" unicode="&#xe810;" d="m276 461q2 20 15 36t32 23q30 11 60 0t41-39q12-28 0-57t-41-41q-14-6-31-6t-30 6q-28 12-41 40-7 19-5 38z m42-10q0-13 10-23t24-10 25 10 10 23-10 24-25 9-24-9-10-24z m168-277v346h238v-63h-170v-80h145v-62h-145v-141h-68z" horiz-adv-x="1000" />
<glyph glyph-name="clouds-flash-alt" unicode="&#xe811;" d="m0 336q0 90 64 154t155 65q17 0 31-2 1 4 4 4-4 18-4 29 0 72 51 123t123 51h13q73 89 188 89t187-89h14q72 0 123-51t50-123q0-66-46-117 46-59 46-133 0-90-64-154t-154-65q-40 0-78 16-40-36-92-57l-35 36 12 23q63 26 103 74 41-29 90-29 64 0 110 46t46 110q0 52-33 96-23 29-56 44t-67 16l-26-2q-18-3-33-9-32 62-91 99-59 37-131 37-104 0-178-76-24-24-41-55-1-3-4-5-27 11-58 11-65 0-111-46t-45-110 45-110 111-46q48 0 89 29 21-25 51-45l-56-37-6 4q-37-14-78-14-90 0-155 65t-64 154z m318 285q82 59 182 59 73 0 140-34 66-32 110-93 13 2 31 2 70 0 129-41 27 31 27 72 0 47-32 79t-79 32q-23 0-43-8-22 45-65 72t-93 26-94-26-64-72q-21 8-43 8-37 0-66-21-28-21-40-55z m57-771l62 187-62 63 187 125-62-125 62-63z" horiz-adv-x="1000" />
<glyph glyph-name="sun-inv" unicode="&#xe812;" d="m94 350q0 13 9 22t22 9h62q14 0 23-9t9-22-9-23-23-8h-62q-14 0-22 8t-9 23z m119-287q-22 21 0 45l45 43q21 21 43 0t0-43l-43-45q-24-22-45 0z m0 529q-22 23 0 45t45 0l43-45q21-22 0-43t-43 0z m68-242q0 90 65 154t154 64 154-64 64-154-64-155-154-64-154 64-65 155z m188-375v62q0 14 8 23t23 9 22-9 9-23v-62q0-14-9-23t-22-8-23 8-8 23z m0 687v63q0 13 8 22t23 9 22-9 9-22v-63q0-14-9-22t-22-9-23 9-8 22z m229-511q22 21 44 0l45-43q21-24 0-45t-45 0l-43 45q-24 21-1 43z m0 398q-23 21 1 43l43 45q23 21 45 0t0-45l-45-43q-22-22-44 0z m83-199q0 13 9 22t22 9h63q13 0 22-9t9-22-9-23-22-9h-63q-14 0-22 9t-9 23z" horiz-adv-x="1000" />
<glyph glyph-name="moon-inv" unicode="&#xe813;" d="m287 357q0 90 64 155 36 33 82 51-21-60-7-121 14-63 58-108t108-58q61-14 121 7-18-46-51-82-65-64-155-64t-156 64-64 156z" horiz-adv-x="1000" />
<glyph glyph-name="cloud-sun-inv" unicode="&#xe814;" d="m0 131q0 88 62 151t149 68q-24 45-24 93 0 90 65 155t154 64q89 0 153-62 63-62 66-153 75-32 125-99 13 2 31 2 90 0 154-65t64-154-64-154-154-64q-42 0-78 13-88-76-203-76t-203 76q-37-13-78-13-90 0-155 64t-64 154z m0 312q0 14 9 23t22 9h63q13 0 22-9t9-23-9-22-22-9h-63q-13 0-22 9t-9 22z m119 243q-21 23 0 44t45 0l43-44q21-22 0-43t-43 0z m131-243q0-37 19-72 92 104 231 104 27 0 60-6-9 56-52 94t-102 37q-64 0-110-46t-46-111z m125 313v62q0 14 9 23t22 8 23-8 8-23v-62q0-14-8-23t-23-8-22 8-9 23z m230-113q-21 21 0 43l43 44q24 22 45 0t0-44l-45-43q-21-22-43 0z m82-200q0 14 9 23t22 9h63q14 0 22-9t9-23-9-22-22-9h-63q-13 0-22 9t-9 22z" horiz-adv-x="1000" />
<glyph glyph-name="cloud-moon-inv" unicode="&#xe815;" d="m0 131q0 90 64 154t155 65q17 0 31-2 78 107 211 125-18 61-1 127 16 66 63 113 39 39 94 58 19 8 33-6 14-15 8-33-20-52-8-104 12-52 50-91 38-39 91-51 53-11 105 8 18 6 32-8 15-14 7-33-19-54-59-93-7-8-27-22 67-21 109-78 41-57 41-129 0-90-64-154t-154-64q-42 0-78 13-88-76-203-76t-203 76q-37-13-78-13-90 0-155 64t-64 154z m517 445q-11-55 8-103 134-10 219-117 65 15 103 64-111-6-191 73-80 80-72 191-8-6-16-14-39-39-51-94z" horiz-adv-x="1000" />
<glyph glyph-name="cloud-inv" unicode="&#xe816;" d="m0 319q0 89 64 154t155 64q17 0 31-2 43 61 109 94 68 33 141 33t140-33q66-33 110-94 13 2 31 2 90 0 154-64t64-155-64-154-154-64q-42 0-78 13-88-76-203-76t-203 76q-37-13-78-13-90 0-155 64t-64 154z" horiz-adv-x="1000" />
<glyph glyph-name="cloud-flash-inv" unicode="&#xe817;" d="m0 506q0 90 64 154t155 65q17 0 31-2 43 61 109 93 68 33 141 33t140-33q66-32 110-93 13 2 31 2 90 0 154-65t64-154-64-154-154-65q-42 0-78 14-76-66-182-74l-21-65 62-62-187-188 62 188-62 62 68 69q-84 15-146 70-37-14-78-14-90 0-155 65t-64 154z" horiz-adv-x="1000" />
<glyph glyph-name="drizzle-inv" unicode="&#xe818;" d="m0 443q0 90 64 155t155 64q17 0 31-2 43 61 109 94 68 33 141 33t140-33q66-33 110-94 13 2 31 2 90 0 154-64t64-155-64-154-154-64q-42 0-78 13-88-76-203-76t-203 76q-37-13-78-13-90 0-155 64t-64 154z m437-468q0 35 63 125l15-24q18-26 32-54 15-32 15-47 0-25-18-44t-44-19-44 19-19 44z" horiz-adv-x="1000" />
<glyph glyph-name="rain-inv" unicode="&#xe819;" d="m0 506q0 90 64 154t155 65q17 0 31-2 43 61 109 93 68 33 141 33t140-33q66-32 110-93 13 2 31 2 90 0 154-65t64-154-64-154-154-65q-42 0-78 14-88-76-203-76t-203 76q-37-14-78-14-90 0-155 65t-64 154z m187-406q0 35 63 125l16-24q17-26 31-54 15-32 15-47 0-25-18-44t-44-19-44 19-19 44z m252-188q0 35 63 125l15-23q18-27 32-55 15-32 15-47 0-25-18-44t-44-18-44 18-19 44z m248 63q0 35 63 125l15-24q18-26 31-54 16-32 16-47 0-25-18-44t-44-19-44 19-19 44z" horiz-adv-x="1000" />
<glyph glyph-name="windy-inv" unicode="&#xe81a;" d="m0 131q0 14 9 23t22 8h250q14 0 23-8t8-23-8-22-23-9h-250q-13 0-22 9t-9 22z m0 125q0 14 9 23t22 8h125q14 0 23-8t8-23-8-22-23-9h-125q-13 0-22 9t-9 22z m63 125q0 14 8 22t23 9h125q13 0 22-9t9-22-9-22-22-9h-125q-14 0-23 9t-8 22z m208-51q0 78 54 135 54 57 132 60 74 77 178 77t179-77q78-3 132-60 53-57 53-135 0-80-56-136t-139-57q-17 0-33 2-62-41-136-41t-135 41q-16-2-35-2-80 0-137 57t-57 136z" horiz-adv-x="1000" />
<glyph glyph-name="sunrise" unicode="&#xe81b;" d="m213 498q-11 12-11 23t11 22 22 11 23-11l43-45q10-11 10-21t-10-22-22-11l-21 11z m68-304q0 13 9 22t22 9h375q14 0 23-9t8-22-8-23-23-9h-375q-13 0-22 9t-9 23z m4 93q12 81 72 134 61 54 143 54t142-54q61-53 72-134h-62q-9 55-53 90-43 35-99 35t-100-35q-43-35-52-90h-63z m59-218q0 13 8 22t23 9h250q13 0 22-9t9-22-9-23-22-9h-250q-14 0-23 9t-8 23z m125 499v63q0 14 8 22t23 9 22-9 9-22v-63q0-13-9-22t-22-9-23 9-8 22z m230-113q-11 11-11 22t11 21l43 45q12 11 23 11t22-11 10-22-10-23l-45-43q-11-11-22-11z" horiz-adv-x="1000" />
<glyph glyph-name="sun" unicode="&#xe81c;" d="m94 350q0 13 9 22t22 9h62q14 0 23-9t9-22-9-23-23-8h-62q-14 0-22 8t-9 23z m119-287q-11 11-11 22t11 23l45 43q10 12 22 12l21-11q10-12 10-23t-10-21l-43-45q-12-11-23-11t-22 11z m0 529q-11 12-11 23t11 22 22 10 23-10l43-45q10-11 10-22t-10-21-22-11l-21 11z m68-242q0 90 65 154t154 64 154-64 64-154-64-155-154-64-154 64-65 155z m63 0q0-65 45-111t111-45 109 44q47 47 47 112t-46 110-110 46-111-46-45-110z m125-375v62q0 14 8 23t23 9 22-9 9-23v-62q0-14-9-23t-22-8-23 8-8 23z m0 687v63q0 13 8 22t23 9 22-9 9-22v-63q0-14-9-22t-22-9-23 9-8 22z m230-554q-11 10-11 21t11 22 21 10l22-10 45-43q10-12 10-23t-10-22-22-11-23 11z m0 441q-11 11-11 21t11 22l43 45q12 10 23 10t22-10 10-22-10-23l-45-43q-11-11-22-11z m82-199q0 13 9 22t22 9h63q13 0 22-9t9-22-9-23-22-9h-63q-14 0-22 9t-9 23z" horiz-adv-x="1000" />
<glyph glyph-name="moon" unicode="&#xe81d;" d="m256 356q0 103 74 177 39 39 94 59 5 2 10 2 12 0 21-10t10-22q0-5-2-11-11-30-11-62 0-21 5-42 12-52 50-91t90-49q21-5 42-5 32 0 62 11 6 2 11 2 12 0 22-10t10-21q0-5-2-10-20-55-59-94-74-74-177-74t-177 73-73 177z m62 1q0-78 55-134 54-54 131-54 6 0 12 0 86 6 136 71-10 0-20 0-98 0-170 72t-72 170q0 10 0 20-10-6-17-14-55-54-55-131z" horiz-adv-x="1000" />
<glyph glyph-name="eclipse" unicode="&#xe81e;" d="m123 320q0 14 9 23t22 9h63q13 0 22-9t9-23-9-22-22-9h-63q-13 0-22 9t-9 22z m119-286q-11 10-11 21t11 23l45 43q11 13 22 13l21-12q11-11 11-22t-11-22l-43-44q-12-11-23-11t-22 11z m0 529q-11 11-11 22t11 22 22 11 23-11l43-45q11-10 11-21t-11-22-22-10l-21 10z m68-243q0 90 65 155t154 64q29 0 63-10 33 10 62 10 90 0 154-64t65-155-65-154-154-64q-29 0-62 10-34-10-63-10-90 0-154 64t-65 154z m63 0q0-56 36-99 36-43 89-53-63 63-63 152t63 153q-53-10-89-53-36-43-36-100z m125-374v62q0 14 9 23t22 8 22-8 9-23v-62q0-14-9-23t-22-9-22 9-9 23z m0 687v62q0 14 9 23t22 8 22-8 9-23v-62q0-14-9-23t-22-8-22 8-9 23z" horiz-adv-x="1000" />
<glyph glyph-name="mist" unicode="&#xe81f;" d="m61 258q0 14 10 22t27 9h168q-11 31-14 63h-98q-13 0-22 8t-9 23 9 22 22 9h98q3 31 14 63h-174q-14 0-23 8t-8 23 8 22 23 9h203q38 56 100 91 61 34 134 34 108 0 186-72 80-73 91-178h160q14 0 23-9t9-22-9-23-23-8h-160q-3-32-13-63h43q15 0 26-9t11-22-11-23-26-8h-73q-38-56-100-91-61-34-134-34t-134 34q-62 35-100 91h-197q-16 0-27 8t-10 23z m253 94q4-33 18-63h394q14 30 18 63h-430z m0 62h430q-12 81-72 134-61 54-143 54-87 0-152-63h152q14 0 22-9t9-22-9-23-22-8h-197q-14-30-18-63z m63-187q65-63 152-63t152 63h-304z" horiz-adv-x="1000" />
<glyph glyph-name="wind" unicode="&#xe820;" d="m123 194q0 13 12 22t29 9h490q39 0 66-27t28-67-28-66-66-28-66 28-28 66q0 16 6 31h-402q-18 0-29 9t-12 23z m0 125q0 13 9 22t22 9h600q-6 15-6 31 0 39 27 66t66 28 67-28 27-66-27-66-67-28h-687q-13 0-22 9t-9 23z m0 124q0 14 9 23t22 9h287q-6 15-6 31 0 39 28 66t66 28 66-28 28-66-28-66-66-28h-375q-13 0-22 9t-9 22z" horiz-adv-x="1000" />
<glyph glyph-name="snowflake" unicode="&#xe821;" d="m224 240q6 25 28 39l64 38q-4 16-4 33t4 35l-64 35q-22 14-28 39-2 9-2 17 0 16 7 31 13 22 38 28 9 2 17 2 16 0 30-8l65-37q28 22 58 33v75q0 25 19 44t44 18 44-18 18-44v-75q31-11 59-33l64 37q13 8 29 8 8 0 18-3 25-6 38-28 8-14 8-30 0-8-2-17-6-25-28-39l-65-37q4-17 4-33t-4-33l65-38q22-14 28-39 2-8 2-17 0-15-8-29-13-22-38-29-10-2-18-2-16 0-29 7l-64 37q-27-21-59-33v-74q0-25-18-44t-44-19-44 19-19 44v74q-30 12-58 33l-65-37q-13-7-28-7-9 0-19 2-25 7-38 29-8 14-8 29 0 9 3 17z m213 110q0-26 18-45 19-18 45-18t44 19 18 44-18 44-44 18-44-18-19-44z" horiz-adv-x="1000" />
<glyph glyph-name="cloud-sun" unicode="&#xe822;" d="m0 131q0 88 62 151t149 68q-24 45-24 93 0 90 65 155t154 64q89 0 153-62 63-62 66-153 75-32 125-99 13 2 31 2 90 0 154-65t64-154-64-154-154-64q-42 0-78 13-88-76-203-76t-203 76q-37-13-78-13-90 0-155 64t-64 154z m0 312q0 14 9 23t22 9h63q13 0 22-9t9-23-9-22-22-9h-63q-13 0-22 9t-9 22z m63-312q0-64 45-110t111-46q48 0 89 29 77-92 192-92t191 92q41-29 90-29 64 0 110 46t46 110-46 110-110 46q-31 0-59-11-37 70-107 107-28 16-59 21-28 8-56 8-115 0-192-90-19-23-31-46-1 0-15 3-23 8-43 8-65 0-111-46t-45-110z m56 555q-11 11-11 22t11 22 22 11 23-11l43-45q11-10 11-21t-11-22-22-10l-21 11z m131-243q0-37 19-72 92 104 231 104 27 0 60-6-9 56-52 94t-102 37q-64 0-110-46t-46-111z m125 313v62q0 14 9 23t22 8 23-8 8-23v-62q0-14-8-23t-23-8-22 8-9 23z m230-113q-11 10-11 21t11 22l43 44q12 11 23 11t22-11 11-22-11-23l-45-43q-11-10-21-10z m82-200q0 14 9 23t22 9h63q14 0 22-9t9-23-9-22-22-9h-63q-13 0-22 9t-9 22z" horiz-adv-x="1000" />
<glyph glyph-name="cloud-moon" unicode="&#xe823;" d="m2 131q0 90 64 154t155 65q17 0 31-2 78 107 211 125-10 31-10 64 0 30 9 63 16 66 63 113 39 39 94 58 7 3 13 3 11 0 20-9 10-11 10-22 0-5-2-11-12-32-12-65 0-20 4-39 12-52 50-91 38-39 91-51 20-4 39-4 33 0 66 12 5 2 10 2 12 0 22-10 10-9 10-20 0-6-3-13-20-54-59-93-7-8-27-22 66-21 108-78 42-57 42-129 0-90-64-154t-154-64q-42 0-78 13-88-76-203-76t-203 76q-37-13-78-13-90 0-155 64t-64 154z m62 0q0-64 46-110t111-46q48 0 89 29 77-92 192-92t191 92q41-29 90-29 64 0 110 46t46 110-46 110-110 46q-31 0-59-11-2 2-5 6t-3 7q-25 40-58 69-38 28-84 43-35 11-72 11-14 0-14-2-69-2-123-39-54-37-86-95-27 11-58 11-65 0-111-46t-46-110z m455 445q-4-20-4-40 0-33 12-63 134-10 219-117 65 15 103 64-8 0-15 0-101 0-176 73-73 73-73 171 0 10 1 20-8-6-16-14-39-39-51-94z" horiz-adv-x="1000" />
<glyph glyph-name="fog-sun" unicode="&#xe824;" d="m94 8q0 14 9 23t22 8h750q13 0 22-8t9-23-9-22-22-9h-750q-14 0-22 9t-9 22z m0 125q0 14 9 23t22 8h750q13 0 22-8t9-23-9-22-22-9h-750q-14 0-22 9t-9 22z m0 125q0 14 9 22t22 9h750q13 0 22-9t9-22-9-22-22-9h-750q-14 0-22 9t-9 22z m0 125q0 14 9 22t22 9h62q14 0 23-9t9-22-9-23-23-8h-62q-14 0-22 8t-9 23z m119 242q-11 12-11 23t11 22 22 11 23-11l43-45q10-11 10-21t-10-22-22-11l-21 11z m68-242q0 90 65 154t154 65 154-65 64-154q0-9-4-31h-62q4 16 4 31 0 64-46 110t-110 46-111-46-45-110q0-15 4-31h-63q-4 22-4 31z m188 312v63q0 13 8 22t23 9 22-9 9-22v-63q0-13-9-22t-22-9-23 9-8 22z m230-113q-11 11-11 22t11 21l43 45q12 11 23 11t22-11 10-22-10-23l-45-43q-11-11-22-11z m82-199q0 14 9 22t22 9h63q13 0 22-9t9-22-9-23-22-8h-63q-14 0-22 8t-9 23z" horiz-adv-x="1000" />
<glyph glyph-name="fog-moon" unicode="&#xe825;" d="m94 8q0 14 9 23t22 8h750q13 0 22-8t9-23-9-22-22-9h-750q-14 0-22 9t-9 22z m0 125q0 14 9 23t22 8h750q13 0 22-8t9-23-9-22-22-9h-750q-14 0-22 9t-9 22z m0 125q0 14 9 22t22 9h750q13 0 22-9t9-22-9-22-22-9h-750q-14 0-22 9t-9 22z m188 254q9 88 71 150 39 39 94 59 6 2 11 2 12 0 22-10t10-21q0-5-2-10-12-33-12-66 0-20 4-40 12-52 51-91 39-38 91-49 19-5 39-5l65 12q6 2 10 2 12 0 22-9t9-22q0-6-2-12-10-27-23-50h-82q15 13 17 17-9 0-19 0-99 0-171 72-74 75-74 177 0 7 1 15-7-6-16-14-54-55-54-133t54-132l2-2h-80q-39 61-39 132 0 14 1 28z" horiz-adv-x="1000" />
<glyph glyph-name="fog-cloud" unicode="&#xe826;" d="m0 6q0 14 9 23t22 8h937q14 0 23-8t8-23-8-22-23-9h-937q-13 0-22 9t-9 22z m0 125q0 14 9 23t22 8h937q14 0 23-8t8-23-8-22-23-9h-937q-13 0-22 9t-9 22z m0 125q0 14 9 23t22 8h937q14 0 23-8t8-23-8-22-23-9h-937q-13 0-22 9t-9 22z m0 125q0 90 64 154t155 65q17 0 31-2 43 61 109 93 68 34 141 34t140-34q66-32 110-93 13 2 31 2 90 0 154-65t64-154q0-9-3-31h-63q4 16 4 31 0 64-46 110t-110 46q-31 0-59-12-32 62-91 100-59 37-131 37t-131-37q-59-38-92-100-27 12-58 12-65 0-111-46t-45-110q0-15 3-31h-62q-4 22-4 31z" horiz-adv-x="1000" />
<glyph glyph-name="fog" unicode="&#xe827;" d="m187 194q0 13 9 22t23 9h562q14 0 22-9t9-22-9-23-22-9h-562q-14 0-23 9t-9 23z m0 125q0 13 9 22t23 9h562q14 0 22-9t9-22-9-23-22-9h-562q-14 0-23 9t-9 23z m0 124q0 14 9 23t23 9h562q14 0 22-9t9-23-9-22-22-9h-562q-14 0-23 9t-9 22z m0 125q0 14 9 23t23 9h562q14 0 22-9t9-23-9-22-22-9h-562q-14 0-23 9t-9 22z" horiz-adv-x="1000" />
<glyph glyph-name="cloud" unicode="&#xe828;" d="m0 319q0 89 64 154t155 64q17 0 31-2 43 61 109 94 68 33 141 33t140-33q66-33 110-94 13 2 31 2 90 0 154-64t64-155-64-154-154-64q-42 0-78 13-88-76-203-76t-203 76q-37-13-78-13-90 0-155 64t-64 154z m63 0q0-65 45-111t111-46q48 0 89 30 77-92 192-92t191 92q41-30 90-30 64 0 110 46t46 111-46 110-110 46q-31 0-59-12-32 62-91 100-59 37-131 37t-131-37q-59-38-92-100-27 12-58 12-65 0-111-46t-45-110z" horiz-adv-x="1000" />
<glyph glyph-name="cloud-flash" unicode="&#xe829;" d="m0 506q0 90 64 154t155 65q17 0 31-2 43 61 109 93 68 33 141 33t140-33q66-32 110-93 13 2 31 2 90 0 154-65t64-154-64-154-154-65q-42 0-78 14-76-66-182-74l-21-65 62-62-187-188 62 188-62 62 68 69q-84 15-146 70-37-14-78-14-90 0-155 65t-64 154z m63 0q0-64 45-110t111-46q48 0 89 29 77-92 192-92l43 6q89 15 148 86 41-29 90-29 64 0 110 46t46 110-46 110-110 46q-31 0-59-12-32 62-91 100-59 37-131 37t-131-37q-59-38-92-100-27 12-58 12-65 0-111-46t-45-110z" horiz-adv-x="1000" />
<glyph glyph-name="cloud-flash-alt" unicode="&#xe82a;" d="m0 506q0 90 64 154t155 65q17 0 31-2 43 61 109 93 68 33 141 33t140-33q66-32 110-93 13 2 31 2 90 0 154-65t64-154-64-154-154-65q-42 0-78 14-47-41-111-61l25 79q45 26 74 60 41-29 90-29 64 0 110 46t46 110-46 110-110 46q-31 0-59-12-32 62-91 100-59 37-131 37t-131-37q-59-38-92-100-27 12-58 12-65 0-111-46t-45-110 45-110 111-46q48 0 89 29 45-55 118-78l-49-49q-48 20-80 49-37-14-78-14-90 0-155 65t-64 154z m375-594l62 188-62 62 187 188-62-188 62-62z" horiz-adv-x="1000" />
<glyph glyph-name="drizzle" unicode="&#xe82b;" d="m0 443q0 90 64 155t155 64q17 0 31-2 43 61 109 94 68 33 141 33t140-33q66-33 110-94 13 2 31 2 90 0 154-64t64-155-64-154-154-64q-42 0-78 13-88-76-203-76t-203 76q-37-13-78-13-90 0-155 64t-64 154z m63 0q0-64 45-110t111-46q48 0 89 30 77-92 192-92t191 92q41-30 90-30 64 0 110 46t46 110-46 111-110 46q-31 0-59-12-32 62-91 99-59 38-131 38t-131-38q-59-37-92-99-27 12-58 12-65 0-111-46t-45-111z m374-468q0 35 63 125l15-24q18-26 32-54 15-32 15-47 0-25-18-44t-44-19-44 19-19 44z" horiz-adv-x="1000" />
<glyph glyph-name="rain" unicode="&#xe82c;" d="m0 506q0 90 64 154t155 65q17 0 31-2 43 61 109 93 68 33 141 33t140-33q66-32 110-93 13 2 31 2 90 0 154-65t64-154-64-154-154-65q-42 0-78 14-88-76-203-76t-203 76q-37-14-78-14-90 0-155 65t-64 154z m63 0q0-64 45-110t111-46q48 0 89 29 77-92 192-92t191 92q41-29 90-29 64 0 110 46t46 110-46 110-110 46q-31 0-59-12-32 62-91 100-59 37-131 37t-131-37q-59-38-92-100-27 12-58 12-65 0-111-46t-45-110z m124-406q0 35 63 125l16-24q17-26 31-54 15-32 15-47 0-25-18-44t-44-19-44 19-19 44z m252-188q0 35 63 125l15-23q18-27 32-55 15-32 15-47 0-25-18-44t-44-18-44 18-19 44z m248 63q0 35 63 125l15-24q18-26 31-54 16-32 16-47 0-25-18-44t-44-19-44 19-19 44z" horiz-adv-x="1000" />
<glyph glyph-name="windy" unicode="&#xe82d;" d="m0 131q0 14 9 23t22 8h250q14 0 23-8t8-23-8-22-23-9h-250q-13 0-22 9t-9 22z m0 125q0 14 9 23t22 8h125q14 0 23-8t8-23-8-22-23-9h-125q-13 0-22 9t-9 22z m63 125q0 14 8 22t23 9h125q13 0 22-9t9-22-9-22-22-9h-125q-14 0-23 9t-8 22z m208-51q0 78 54 135 54 57 132 60 74 77 178 77t179-77q78-3 132-60 53-57 53-135 0-80-56-136t-139-57q-17 0-33 2-62-41-136-41t-135 41q-16-2-35-2-80 0-137 57t-57 136z m63 0q0-54 38-92t93-39q26 0 46 8 56-47 124-47 70 0 122 47 23-8 47-8 55 0 94 39t39 92-39 94-94 39q-9 0-17-2-56 78-152 78t-151-78q-8 2-19 2-55 0-93-39t-38-94z" horiz-adv-x="1000" />
<glyph glyph-name="windy-rain" unicode="&#xe82e;" d="m0 318q0 12 9 21t22 9h250q14 0 23-9t8-21q0-14-9-23t-22-10h-250q-13 0-22 10t-9 23z m0 124q0 13 9 22t22 9h125q14 0 23-9t8-22q0-13-9-22t-22-10h-125q-13 0-22 10t-9 22z m63 125q0 13 8 22t23 9h125q13 0 22-9t9-22q0-13-9-22t-22-10h-125q-13 0-22 10t-9 22z m208-49q0 77 54 133t132 60q74 76 178 76t179-76q78-4 132-60t53-133q0-82-56-139t-139-57q-17 0-33 2-62-39-136-39t-135 39q-16-2-35-2-80 0-137 57t-57 139z m63 0q0-55 38-94t93-39q26 0 46 8 56-45 124-45t122 45q23-8 47-8 55 0 94 39t39 94-39 92-94 38h-17q-57 77-152 77t-151-77h-19q-55 0-93-38t-38-92z m103-418q0 35 63 125l15-24q18-26 32-54 15-32 15-47 0-25-18-44t-44-19-44 19-19 44z m250-125q0 35 63 125l15-24q18-26 31-54 16-32 16-47 0-25-18-44t-44-19-44 19-19 44z" horiz-adv-x="1000" />
<glyph glyph-name="snow" unicode="&#xe82f;" d="m0 506q0 90 64 154t155 65q17 0 31-2 43 61 109 93 68 33 141 33t140-33q66-32 110-93 13 2 31 2 90 0 154-65t64-154-64-154-154-65q-42 0-78 14-88-76-203-76t-203 76q-37-14-78-14-90 0-155 65t-64 154z m63 0q0-64 45-110t111-46q48 0 89 29 77-92 192-92t191 92q41-29 90-29 64 0 110 46t46 110-46 110-110 46q-31 0-59-12-32 62-91 100-59 37-131 37t-131-37q-59-38-92-100-27 12-58 12-65 0-111-46t-45-110z m285-544q3 15 15 21l35 21q-2 10-2 19t2 18l-35 20q-12 8-15 21-2 5-2 10 0 8 4 17 7 12 21 16t27-4l35-21q14 14 32 19v41q0 14 10 25t25 11 24-11 11-25v-41q17-5 31-19l35 21q14 8 28 4t20-16q4-9 4-17 0-5-1-10-4-13-16-21l-35-20q2-9 2-18t-2-19l35-21q12-6 16-21 1-5 1-10 0-9-4-16-7-12-21-16t-27 4l-35 20q-14-12-31-18v-41q0-15-11-25t-24-10-25 10-10 25v41q-17 6-32 18l-35-20q-13-7-27-4t-21 16q-4 7-4 16 0 5 2 10z m117 61q0-15 10-25t25-9 23 9q12 10 12 25t-11 24-24 10-25-10-10-24z" horiz-adv-x="1000" />
<glyph glyph-name="snow-alt" unicode="&#xe830;" d="m0 506q0 90 64 154t155 65q17 0 31-2 43 61 109 93 68 33 141 33t140-33q66-32 110-93 13 2 31 2 90 0 154-65t64-154-64-154-154-65q-34 0-67 12-3 16-11 27-9 19-31 34 1 0 5 5t9 8 5 6q41-29 90-29 64 0 110 46t46 110-46 110-110 46q-31 0-59-12-32 62-91 100-59 37-131 37t-131-37q-59-38-92-100-27 12-58 12-65 0-111-46t-45-110 45-110 111-46q48 0 89 29 0-2 20-19-22-15-31-34-8-11-12-27-33-12-66-12-90 0-155 65t-64 154z m348-356q3 14 15 20l35 22q-2 9-2 18t2 19l-35 19q-12 8-15 22-2 5-2 9 0 8 4 17 7 13 21 17t27-4l35-22q14 14 32 20v41q0 13 10 24t25 11 24-11 11-24v-41q17-6 31-20l35 22q14 8 28 4t20-17q4-8 4-17 0-4-1-9-4-14-16-22l-35-19q2-10 2-19t-2-18l35-22q12-6 16-20 1-6 1-11 0-8-4-16-7-12-21-15t-27 4l-35 19q-14-12-31-17v-41q0-16-11-26t-24-10-25 10-10 26v41q-17 5-32 17l-35-19q-13-8-27-4t-21 15q-4 8-4 16 0 5 2 11z m117 60q0-14 10-24t25-10 23 10q12 10 12 24t-11 25-24 9-25-9-10-25z" horiz-adv-x="1000" />
<glyph glyph-name="snow-heavy" unicode="&#xe831;" d="m0 506q0 90 64 154t155 65q17 0 31-2 43 61 109 93 68 33 141 33t140-33q66-32 110-93 13 2 31 2 90 0 154-65t64-154-64-154-154-65q-42 0-78 14-88-76-203-76t-203 76q-37-14-78-14-90 0-155 65t-64 154z m60-392q-1 3-1 7 0 14 15 18l24 6q0 12 6 21l-18 18q-7 7-7 14t7 14q7 8 15 8 7 0 14-7l18-17q9 3 21 5l6 24q5 15 17 15 4 0 8-2 16-4 16-17 0-3-2-8l-6-23q5-3 8-6 4-5 8-10l23 8q3 0 6 0 15 0 20-16 1-4 1-8 0-13-17-17l-23-6q0-12-6-21l17-18q9-7 9-15 0-6-8-13-7-8-15-8-8 0-15 7l-16 17q-11-3-21-6l-8-23q-3-16-16-16-4 0-8 1-16 4-16 18 0 4 1 9l6 23q-7 4-16 16l-23-8q-3-1-5-1-16 0-19 17z m3 392q0-64 45-110t111-46q48 0 89 29 77-92 192-92t191 92q41-29 90-29 64 0 110 46t46 110-46 110-110 46q-31 0-59-12-32 62-91 100-59 37-131 37t-131-37q-59-38-92-100-27 12-58 12-65 0-111-46t-45-110z m81-381q7-7 14-7l15 7q7 7 7 13 0 7-8 15-7 8-15 8l-13-7q-8-8-8-15t8-14z m204-163q3 15 15 21l35 21q-2 10-2 19t2 18l-35 20q-12 8-15 21-2 5-2 10 0 8 4 17 7 12 21 16t27-4l35-21q14 14 32 19v41q0 14 10 25t25 11 24-11 11-25v-41q17-5 31-19l35 21q14 8 28 4t20-16q7-13 3-27t-16-21l-35-20q2-9 2-18t-2-19l35-21q12-6 16-21t-3-26q-7-12-21-16t-27 4l-35 20q-14-12-31-18v-41q0-15-11-25t-24-10-25 10-10 25v41q-17 6-32 18l-35-20q-13-7-27-4t-21 16q-4 7-4 16 0 5 2 10z m117 61q0-15 10-25t25-9 23 9q12 10 12 25t-11 24-24 10-25-10-10-24z m277 81q4 15 17 15 4 0 8-2l24-5q3 5 7 9 3 3 8 6l-6 24q-1 4-1 8 0 13 15 17 4 1 8 1 13 0 17-15l6-23q12-2 22-6l17 18q8 6 14 6 8 0 16-7 6-8 6-15t-6-14l-18-17q6-10 6-22l23-6q16-4 16-18 0-3-1-7-4-16-19-16-3 0-5 0l-24 8q-8-12-16-15l6-24q2-5 2-9 0-13-16-17-5-1-8-1-13 0-17 15l-7 24q-13 2-22 6l-16-18q-7-7-14-7-8 0-16 8-7 7-7 14 0 7 8 15l18 17q-6 9-6 22l-24 5q-17 5-17 18 0 3 2 8z m85-41q7-7 14-7l15 7q7 7 7 13 0 7-8 14-7 8-15 8l-13-7q-8-7-8-14t8-14z" horiz-adv-x="1000" />
<glyph glyph-name="hail" unicode="&#xe832;" d="m0 506q0 90 64 154t155 65q17 0 31-2 43 61 109 93 68 33 141 33t140-33q66-32 110-93 13 2 31 2 90 0 154-65t64-154-64-154-154-65q-42 0-78 14-88-76-203-76t-203 76q-37-14-78-14-90 0-155 65t-64 154z m63 0q0-64 45-110t111-46q28 0 54 10l35 13 30-25q70-61 162-61t162 61l29 25 35-13q27-10 55-10 64 0 110 46t46 110-46 110-110 46q-13 0-22-2l-37-6-23 32q-74 101-199 101t-199-101l-24-32-37 6q-8 2-21 2-65 0-111-46t-45-110z m62-344q0 26 19 44t43 19 43-20q20-17 20-43t-19-44-44-18-43 18-19 44z m125-250q0 26 18 44t44 19 43-20q20-17 20-43t-19-44-44-18-44 18-18 44z m187 188q0 25 19 44t44 18 43-19q19-18 19-43t-18-44-44-19-44 19-19 44z m188-188q0 26 18 44t44 19 43-20q20-17 20-43t-19-44-44-18-44 18-18 44z m125 250q0 26 18 44t44 19 43-20q20-17 20-43t-19-44-44-18-44 18-18 44z" horiz-adv-x="1000" />
<glyph glyph-name="clouds" unicode="&#xe833;" d="m0 131q0 90 64 154t155 65q17 0 31-2 1 4 4 4-4 18-4 29 0 72 51 123t123 51h13q73 90 188 90t187-90h14q72 0 123-51t50-123q0-66-46-117 46-61 46-133 0-90-64-154t-154-64q-42 0-78 13-88-76-203-76t-203 76q-37-13-78-13-90 0-155 64t-64 154z m63 0q0-64 45-110t111-46q48 0 89 29 77-92 192-92t191 92q41-29 90-29 64 0 110 46t46 110q0 52-33 96-23 29-56 44t-67 16l-26-2q-18-3-33-9-32 62-91 99-59 37-131 37-104 0-178-76-24-26-41-55 0-5-4-5-27 11-58 11-65 0-111-46t-45-110z m255 285q82 59 182 59 73 0 140-33 66-33 110-94 13 2 31 2 71 0 129-43 27 33 27 74 0 47-32 79t-79 32q-23 0-43-8-22 43-65 71-43 27-93 27t-94-27q-43-28-64-71-21 8-43 8-37 0-66-21-28-21-40-55z" horiz-adv-x="1000" />
<glyph glyph-name="clouds-flash" unicode="&#xe834;" d="m0 336q0 90 64 154t155 65q17 0 31-2 1 4 4 4-4 18-4 29 0 72 51 123t123 51h13q73 89 188 89t187-89h14q72 0 123-51t50-123q0-66-46-117 46-59 46-133 0-90-64-154t-154-65q-42 0-78 14-82-72-193-74l-10-20 62-62-187-125 62 125-62 62 45 30q-72 19-123 64-37-14-78-14-90 0-155 65t-64 154z m63 0q0-64 45-110t111-46q48 0 89 29 74-89 188-92l47 6q89 15 148 86 41-29 90-29 64 0 110 46t46 110q0 52-33 96-23 29-56 44t-67 16l-26-2q-18-3-33-9-32 62-91 99-59 37-131 37-104 0-178-76-24-24-41-55-1-3-4-5-27 11-58 11-65 0-111-46t-45-110z m255 285q82 59 182 59 73 0 140-34 66-32 110-93 13 2 31 2 70 0 129-41 27 31 27 72 0 47-32 79t-79 32q-23 0-43-8-22 45-65 72t-93 26-94-26-64-72q-21 8-43 8-37 0-66-21-28-21-40-55z" horiz-adv-x="1000" />
<glyph glyph-name="search" unicode="&#xe835;" d="m11 375q-23 87 0 173t87 150q48 48 110 74t128 25q65 0 127-25t110-74q52-52 77-119t21-137-36-132q28-8 49-29l174-173q35-36 35-85t-35-85q-35-35-85-35t-85 35l-173 174q-22 20-30 49-70-35-149-35-66 0-128 25t-110 73q-64 64-87 151z m101 86q0-93 65-158 66-65 159-65 92 0 157 65t66 158-66 158q-66 66-157 66-92 0-159-66-65-65-65-158z" horiz-adv-x="892.6" />
<glyph glyph-name="mail" unicode="&#xe836;" d="m0 28v644q0 8 2 18l460-460q39-39 95-39 55 0 94 39l460 460q2-9 2-18v-644q0-37-26-62t-62-26h-937q-36 0-62 26t-26 62z m63 728q13 4 25 4h937q12 0 25-4l-463-463q-13-12-31-12t-30 12z" horiz-adv-x="1113.3" />
<glyph glyph-name="heart" unicode="&#xe837;" d="m0 530q0 103 73 176t177 73q70 0 128-35t91-92q32 58 90 93t128 34q103 0 177-73t73-176q0-95-63-166l-343-403q-25-30-62-30t-63 30l-343 403q-63 71-63 166z" horiz-adv-x="937.5" />
<glyph glyph-name="heart-broken" unicode="&#xe838;" d="m0 530q0 103 73 176t177 73q81 0 147-47l-14-250q0-12 9-20t21-9h10q12 0 18-8t3-20l-57-172q-4-12-2-13t9 8l194 267q7 9 4 16t-16 7h-77q-12 0-17 8t-1 18l82 183q57 32 124 32 103 0 177-73t73-176q0-94-63-166l-343-403q-25-30-62-30t-63 30l-342 403q-64 72-64 166z" horiz-adv-x="937.5" />
<glyph glyph-name="star" unicode="&#xe839;" d="m2 460q11 37 101 37h225l69 207v1q19 56 44 75t49 0 43-75l1-1 68-207h226q58 0 85-17t14-47-59-63l-5-4-176-126 67-207 2-2q27-85-4-109t-105 29l-3 2-2 1-177 127-179-128-2-2q-73-52-105-29t-4 109l1 1v2l68 206-177 126-2 2-2 2q-73 52-61 90z" horiz-adv-x="931.2" />
<glyph glyph-name="star-empty" unicode="&#xe83a;" d="m3 436q-12 31 16 50t91 18h242l74 222v1q14 45 33 68t40 23q20 0 39-23t33-68l1-1 73-222h242q63 0 91-18t16-50-64-68l-5-4-190-135 74-221 1-3q19-60 11-91t-40-32q-37 0-88 38l-2 2-3 1-189 136-192-137-3-2q-52-39-88-39-31 0-40 32t11 92l1 3 74 221-190 135-2 3-3 1q-51 37-64 68z m165-26l203-145-21-65-57-173 206 147 205-147-57 173-21 65 203 145h-251l-21 65-58 175-80-240h-251z" horiz-adv-x="997.6" />
<glyph glyph-name="star-half" unicode="&#xe83b;" d="m3 450q-12 30 16 47t87 18h233l70 213 0 2q15 43 33 66t39 21v-727l-186-135-3-2q-49-35-82-36t-40 29 10 89l1 1 0 1 70 214-182 129-2 3-3 1q-49 35-61 65z" horiz-adv-x="481" />
<glyph glyph-name="star-half_empty" unicode="&#xe83c;" d="m3 436q-12 31 16 50t91 18h242l73 222 1 1q14 45 33 68t40 23v-168l-80-240h-251l203-145-21-65-57-173 206 147v-115l-192-137-3-2q-52-39-88-39-32 0-40 32t11 92l1 3 73 221-189 135-3 3-3 1q-51 37-63 68z" horiz-adv-x="498.5" />
<glyph glyph-name="user" unicode="&#xe83d;" d="m0-119q0 9 1 23t11 47 27 49q17 17 68 38t115 43 93 38q38 19 59 56t20 76q0 27-32 63-33 38-53 102t-20 149q0 64 18 113t49 80 71 45 85 15 85-15 71-45 49-80 18-113q0-84-20-149t-52-102q-33-37-33-63 0-39 21-76t59-56q29-15 93-38t114-43 68-38q17-17 27-47t11-51l1-21h-1024z" horiz-adv-x="1024.9" />
<glyph glyph-name="user-male" unicode="&#xe83e;" d="m0-119q0 9 1 23t11 44 26 48q17 17 65 37t108 42 90 36q36 18 55 54t20 73q0 27-31 62-18 21-31 59-44 18-44 72 0 41 15 59-4 27-9 80-1 8-2 21t2 44 15 53q19 33 47 45t47 5q1 0 1 0 1 5 4 13t14 22 25 20q8 4 25 6t43 1 52-8 54-21 49-38 35-59 15-84q0-10 0-20-4-45-9-80 14-18 14-59 0-54-44-72-13-38-31-59-31-35-31-62 0-38 20-73t55-54q29-15 90-36t109-42 64-37q18-17 27-45t10-50l1-20h-977z" horiz-adv-x="977.5" />
<glyph glyph-name="user-female" unicode="&#xe83f;" d="m0-119q0 9 1 23t11 45 27 49q16 17 65 37t111 43 91 37q32 17 52 47t24 65h-81q-2 9-5 24t-10 59-12 87-7 96 1 97 15 81 33 57q18 19 42 26t33-1q1 0 2 1 0 1 2 8 13 33 42 47 17 10 62 8 2 0 7 0t6 0h2q25-2 56-11 27-8 50-20t46-35 40-53 25-75 6-101q-3-66-9-122t-12-85-10-52-8-29l-4-7h-81q4-34 24-65t52-47q29-15 91-37t111-43 66-37q17-18 26-47t11-49l1-21h-995z" horiz-adv-x="995.1" />
<glyph glyph-name="users" unicode="&#xe840;" d="m0 49q20 7 60 22t69 26 50 22q37 19 57 56t21 76q0 27-31 64-19 21-33 60-45 18-45 76 0 43 14 61-5 39-9 82-5 55 26 108t84 84 110 32q43 0 85-19t73-50 48-72 14-83q-4-55-8-82 14-19 14-61 0-58-45-76-15-41-32-60-32-37-32-64 0-39 20-76t58-56q29-15 92-38t113-43 66-38q18-17 28-47t10-51l1-21h-878v168z m705 299q0 34 12 50-5 32-7 67-4 45 21 89t69 72 90 27 89-27 69-72 22-89q-2-35-8-67 12-16 12-50 0-48-36-62-12-33-27-50-9-10-13-16t-9-16-4-20q0-32 17-62t47-46q17-9 42-19t60-22 50-19v-135h-254q0 4 0 11t-3 26-7 36-15 38-23 33q-23 25-53 44t-79 37q27 34 27 78 0 10-5 20t-8 16-12 16q-14 15-27 49-37 16-37 63z" horiz-adv-x="1201.2" />
<glyph glyph-name="movie" unicode="&#xe841;" d="m0-31v761q0 37 26 62t62 26h117v-175h528v175h117q36 0 61-26t26-62v-761q0-36-26-62t-61-26h-117v176h-528v-176h-117q-36 0-62 26t-26 62z m74 44v-59h58v59h-58z m0 88h58v59h-58v-59z m0 146h58v59h-58v-59z m0 147h58v59h-58v-59z m0 146h58v59h-58v-59z m0 147h58v59h-58v-59z m131-484h528v293h-528v-293z m600-190v-59h58v59h-58z m0 88h58v59h-58v-59z m0 146h58v59h-58v-59z m0 147h58v59h-58v-59z m0 146h58v59h-58v-59z m0 147h58v59h-58v-59z" horiz-adv-x="937.5" />
<glyph glyph-name="videocam" unicode="&#xe842;" d="m0 164v373q0 62 43 106t104 44h549q59 0 102-42t45-101l208 133q26 17 44 6t18-43v-578q0-33-18-44t-44 6l-208 133q-2-60-45-102t-102-41h-549q-61 0-104 44t-43 106z m636 353q0-18 13-31t31-13 31 13 13 31-13 31-31 13-31-13-13-31z" horiz-adv-x="1113.8" />
<glyph glyph-name="isight" unicode="&#xe843;" d="m0 350q0 95 37 182t100 149 150 100 182 37 182-37 149-100 100-149 37-182-37-182-100-150-149-100-182-37-182 37-150 100-100 150-37 182z m176 0q0-79 39-147t107-107 147-39 146 39 107 107 39 147q0 79-39 147t-107 106-146 40-147-40-107-106-39-147z m176-150q99 6 167 79t68 171q0 27-5 53 35-26 56-67t21-86q0-79-56-134t-134-56q-65 0-117 40z" horiz-adv-x="937.5" />
<glyph glyph-name="camera" unicode="&#xe844;" d="m0 96v508q0 64 47 110t112 46h737q65 0 112-46t46-110v-508q0-65-46-111t-112-45h-737q-66 0-112 45t-47 111z m114 508q0-19 13-31t32-13q18 0 31 13t13 31-13 31-31 13-32-13-13-31z m179-245q0-64 32-118t85-85 118-32 117 32 85 85 32 118-32 117-85 85-117 32-118-32-85-85-32-118z m88 0q0-61 43-104t104-43 103 43 43 104q0 60-43 103t-103 42-104-42-43-103z" horiz-adv-x="1054.7" />
<glyph glyph-name="menu" unicode="&#xe845;" d="m68 62q0-30 21-51t51-21h793q30 0 51 21t21 51-21 51-51 21h-793q-29 0-51-21t-21-51z m0 288q0-30 21-51t51-21h793q30 0 51 21t21 51-21 51-51 21h-793q-29 0-51-21t-21-51z m0 288q0-30 21-51t51-21h793q30 0 51 21t21 51-21 51-51 21h-793q-29 0-51-21t-21-51z" horiz-adv-x="1073.2" />
<glyph glyph-name="th-thumb" unicode="&#xe846;" d="m0-66v286q0 22 15 37t37 16h285q22 0 37-16t15-37v-286q0-21-15-36t-37-15h-285q-22 0-37 15t-15 36z m0 546v286q0 21 15 36t37 15h285q22 0 37-15t15-36v-286q0-22-15-37t-37-16h-285q-22 0-37 16t-15 37z m547-546v286q0 22 15 37t37 16h286q21 0 37-16t15-37v-286q0-21-15-36t-37-15h-286q-21 0-37 15t-15 36z m0 546v286q0 21 15 36t37 15h286q22 0 37-15t15-36v-286q0-22-15-37t-37-16h-286q-21 0-37 16t-15 37z" horiz-adv-x="937.5" />
<glyph glyph-name="th-thumb-empty" unicode="&#xe847;" d="m0-66v286q0 22 15 37t37 16h286q21 0 37-16t15-37v-286q0-21-15-36t-37-15h-286q-22 0-37 15t-15 36z m0 546v286q0 21 15 36t37 15h286q21 0 37-15t15-36v-286q0-22-15-37t-37-16h-286q-21 0-37 16t-15 37z m88-510h214v214h-214v-214z m0 546h214v213h-214v-213z m459-582v286q0 22 15 37t37 16h286q21 0 37-16t15-37v-286q0-21-15-36t-37-15h-286q-21 0-37 15t-15 36z m0 546v286q0 21 15 36t37 15h286q22 0 37-15t15-36v-286q0-22-15-37t-37-16h-286q-21 0-37 16t-15 37z m88-510h215v214h-215v-214z m0 546h215v213h-215v-213z" horiz-adv-x="937.5" />
<glyph glyph-name="th-list" unicode="&#xe848;" d="m0 62q0-30 21-51t51-21h32q30 0 51 21t21 51-21 51-51 21h-32q-30 0-51-21t-21-51z m0 288q0-30 21-51t51-21h32q30 0 51 21t21 51-21 51-51 21h-32q-30 0-51-21t-21-51z m0 288q0-30 21-51t51-21h32q30 0 51 21t21 51-21 51-51 21h-32q-30 0-51-21t-21-51z m234-576q0-30 21-51t51-21h559q30 0 51 21t21 51-21 51-51 21h-559q-30 0-51-21t-21-51z m0 288q0-30 21-51t51-21h559q30 0 51 21t21 51-21 51-51 21h-559q-30 0-51-21t-21-51z m0 288q0-30 21-51t51-21h559q30 0 51 21t21 51-21 51-51 21h-559q-30 0-51-21t-21-51z" horiz-adv-x="937.5" />
<glyph glyph-name="ok" unicode="&#xe849;" d="m0 339q0-35 24-60l246-239q24-25 60-25 36 0 60 25l505 495q25 24 25 59t-25 58q-25 25-60 25t-60-25l-445-435-185 181q-25 24-60 24t-61-24q-24-24-24-59z" horiz-adv-x="920.4" />
<glyph glyph-name="ok-circled" unicode="&#xe84a;" d="m0 350q0 95 37 182t100 149 150 100 182 37 182-37 149-100 100-149 37-182-37-182-100-150-149-100-182-37-182 37-150 100-100 150-37 182z m177-31q0-22 15-38l153-153q14-15 38-15 22 0 37 15l315 315q16 16 16 38t-16 37-38 15-37-15l-277-278-116 116q-15 15-37 15t-38-15q-15-16-15-37z" horiz-adv-x="937.5" />
<glyph glyph-name="cancel-1" unicode="&#xe84b;" d="m0 90q0 36 26 62l195 195-195 196q-26 25-26 61t26 61 61 25 61-25l196-196 195 196q25 25 61 25t61-25 25-61-25-61l-195-196 195-195q25-26 25-62t-25-61q-25-25-61-25t-61 25l-195 195-196-195q-25-25-61-25t-61 25q-26 26-26 61z" horiz-adv-x="686.5" />
<glyph glyph-name="cancel-circled" unicode="&#xe84c;" d="m0 350q0 95 37 182t100 149 150 100 182 37 182-37 149-100 100-149 37-182-37-182-100-150-149-100-182-37-182 37-150 100-100 150-37 182z m261-155q0-22 15-38 15-15 37-15 22 0 37 15l119 119 118-119q15-15 37-15 22 0 37 15 15 16 15 38t-15 37l-118 118 118 119q15 15 15 37t-15 37-37 15-37-15l-118-119-119 119q-15 15-37 15t-37-15q-15-15-15-37t15-37l118-119-118-118q-15-15-15-37z" horiz-adv-x="937.5" />
<glyph glyph-name="plus" unicode="&#xe84d;" d="m0 291v119q0 20 14 35t35 14h281v281q0 20 15 35t35 14h119q20 0 34-14t15-35v-281h281q20 0 35-14t14-35v-119q0-21-14-35t-35-15h-281v-282q0-20-15-34t-34-15h-119q-21 0-35 15t-15 34v282h-281q-20 0-35 15t-14 35z" horiz-adv-x="878.9" />
<glyph glyph-name="help-circled" unicode="&#xe84e;" d="m0 350q0 95 37 182t100 149 149 100 183 37q95 0 182-37t149-100 100-149 37-182-37-182-100-150-149-100-182-37q-96 0-183 37t-149 100-100 150-37 182z m333 175l31-101q46 29 92 29 50 0 50-22 0-5-2-8t-6-8-7-5-10-6-9-4l-40-21q-22-12-28-25t-6-37v-38h117v16q0 7 0 10t3 6 6 6q1 0 11 4t17 9 19 10 18 14q19 16 29 36t11 56q0 49-42 83t-106 34q-85 0-148-38z m48-333q0-32 21-49t55-17q33 0 54 17t20 49-20 49-54 18q-35 0-55-18t-21-49z" horiz-adv-x="937.5" />
<glyph glyph-name="help-circled-alt" unicode="&#xe84f;" d="m0 350q0 95 37 182t100 149 149 100 183 37q95 0 182-37t149-100 100-149 37-182q0-95-37-182t-100-150-149-100-182-37q-96 0-183 37t-149 100-100 150-37 182z m117 0q0-71 28-137t75-112 112-75 137-28 136 28 112 75 75 112 28 137q0 95-47 176t-128 128-176 47-177-47-128-128-47-176z m216 176l31-101q45 29 93 29 49 0 49-23 0-4-2-8t-3-5-6-5-7-5-8-4l-8-4-40-21q-22-12-28-25t-6-37v-37h117v16q0 7 0 10t3 6 6 5q1 1 11 5t17 8 19 11 18 13q19 17 29 37t11 55q0 49-42 83t-106 34q-83 0-148-37z m48-334q0-32 21-49t55-17q33 0 54 17t20 49-20 49-54 18q-35 0-55-18t-21-49z" horiz-adv-x="937.5" />
<glyph glyph-name="info-circled" unicode="&#xe850;" d="m0 350q0 95 37 182t100 149 149 100 183 37q95 0 182-37t149-100 100-149 37-182q0-95-37-182t-100-150-149-100-182-37q-96 0-183 37t-149 100-100 150-37 182z m398 170q0-29 20-46t51-17q32 0 51 17t19 46-19 45-51 17q-32 0-51-17t-20-45z m5-402h132v299h-132v-299z" horiz-adv-x="937.5" />
<glyph glyph-name="info-circled-alt" unicode="&#xe851;" d="m0 350q0 95 37 182t100 149 149 100 183 37q95 0 182-37t149-100 100-149 37-182q0-95-37-182t-100-150-149-100-182-37q-96 0-183 37t-149 100-100 150-37 182z m117 0q0-71 28-137t75-112 112-75 137-28 136 28 112 75 75 112 28 137-28 136-75 112-112 75-136 28-137-28-112-75-75-112-28-136z m281 170q0 28 20 45t51 17q32 0 51-17t19-45-19-46-51-17q-32 0-51 17t-20 46z m5-402v299h132v-299h-132z" horiz-adv-x="937.5" />
<glyph glyph-name="home" unicode="&#xe852;" d="m0 340q-2 16 21 37l381 351q23 22 57 22t56-22l381-351q23-21 20-37t-30-15h-91v-305q0-32-23-55t-55-23h-517q-32 0-55 23t-23 55v305h-92q-27 0-30 15z" horiz-adv-x="916.5" />
<glyph glyph-name="link" unicode="&#xe853;" d="m8 96q-17 66 0 132t67 115l131 131q49 49 115 67t131 0 116-67q20-20 20-49t-20-50-50-20-49 20q-35 34-82 34t-81-34l-132-131q-33-34-33-82t33-82q34-33 82-33t81 33l27 28q78-38 164-36l-91-91q-49-49-115-66t-132 0-115 66-67 115z m291 180q0 29 21 49 20 21 49 21t50-21q33-34 81-34t82 34l131 132q34 34 34 81t-34 81q-33 34-81 34t-82-34l-27-26q-77 36-164 35l91 91q50 49 116 66t131 0 115-66q49-49 67-115t0-132-67-115l-131-131q-49-49-115-67t-132 0-114 67q-21 21-21 50z" horiz-adv-x="887.2" />
<glyph glyph-name="attach" unicode="&#xe854;" d="m0 48q0-69 48-118 49-49 117-49t118 49l481 484q65 65 65 159 0 93-65 158t-157 65-158-65l-366-368 55-56 366 369q43 43 103 43t103-43q43-43 43-103t-43-103l-482-484q-26-26-63-26t-62 26q-25 25-25 62t25 63l401 404q9 8 21 8t22-8q8-9 8-21 0-12-8-21l-301-303 54-56 301 304q31 31 31 76 0 46-31 76-31 32-76 32t-75-32l-402-404q-48-49-48-118z" horiz-adv-x="829.6" />
<glyph glyph-name="lock" unicode="&#xe855;" d="m0-30v393q0 15 10 25t24 10h46v148q0 54 20 104t56 87q36 39 85 60t104 21q54 0 103-21t85-60q36-38 56-87t20-104v-148h46q14 0 24-10t10-25v-393q0-7-3-12t-7-8-10-7-14-6q-19-8-53-18t-111-24-147-14q-151 0-310 56-16 6-25 13t-9 20z m206 428h277v148q0 63-42 107-40 42-96 43-58-1-98-43-41-44-41-107v-148z" horiz-adv-x="689" />
<glyph glyph-name="lock-alt" unicode="&#xe856;" d="m0-30v393q0 14 10 24t25 9h45v149q0 55 20 104t56 88q36 38 85 60t104 21 104-21 84-60q37-38 57-88t20-104v-149h45q15 0 25-9t10-24v-393q0-13-8-19t-27-14q-10-5-35-12t-66-19-98-17-111-8q-155 0-310 56-17 5-26 13t-9 20z m206 426h278v149q0 63-42 108-42 42-97 42t-98-42q-41-44-41-108v-149z m28-334q0-11 9-20 8-8 19-8 12 0 20 8l63 63 63-63q7-8 19-8 11 0 20 8 8 9 8 20t-8 19l-63 63 63 63q8 8 8 20t-8 19-20 9-19-9l-63-63-63 63q-9 9-20 9t-19-9-9-19 9-20l63-63-63-63q-9-8-9-19z" horiz-adv-x="689.5" />
<glyph glyph-name="lock-open" unicode="&#xe857;" d="m32 359v187q0 54 19 104t55 87q36 39 84 60t101 21 102-21 83-60 55-87 20-104v-148h452q14 0 24-10t10-25v-393q0-9-5-15t-11-9-18-9q-11-4-35-12t-66-18-98-18-111-8q-155 0-310 56-17 6-26 13t-9 20v393q0 15 10 25t25 10h45v148q0 62-41 107-40 42-96 42-56 0-95-42-41-45-41-107v-46l-60-72h60v-69l-59-45z" horiz-adv-x="1068.8" />
<glyph glyph-name="lock-open-alt" unicode="&#xe858;" d="m0-30v393q0 14 10 24t25 9h449v149q0 63-42 108-42 42-97 42t-98-42q-41-44-41-108v-38h-126v38q0 55 20 104t56 88q36 38 85 60t104 21 104-21 84-60q37-38 57-88t20-104v-149h45q15 0 25-9t10-24v-393q0-13-8-19t-27-14q-10-5-35-12t-66-19-98-17-111-8q-155 0-310 56-17 5-26 13t-9 20z m187 171q0-12 8-21l86-83q8-8 20-8 13 0 21 8l175 171q9 9 9 21t-9 21q-8 8-21 8t-20-8l-155-152-64 63q-9 9-21 9t-21-9q-8-8-8-20z" horiz-adv-x="689.5" />
<glyph glyph-name="eye" unicode="&#xe859;" d="m0 350q0 30 15 67t44 77 70 78 92 68 115 49 133 18 132-18 115-49 92-68 70-78 44-77 15-67q0-30-15-67t-44-77-70-78-92-68-115-48-132-18-133 18-115 48-92 68-70 78-44 77-15 67z m234 0q0-64 32-117t85-85 118-32 117 32 85 85 32 117-32 117-85 86-117 31-118-31-85-86-32-117z m136 0q0-41 29-70t70-28 69 28 29 70q0 41-29 70t-69 29-70-29-29-70z" horiz-adv-x="937.5" />
<glyph glyph-name="download-1" unicode="&#xe85a;" d="m0 84v73q0 33 24 56t57 24 56-24 24-56v-73q0-17 12-29t30-13h531q18 0 30 13t12 29v73q0 33 24 56t56 24 57-24 24-56v-73q0-84-59-143t-144-60h-531q-84 0-144 60t-59 143z m155 359q0 33 24 57 23 23 56 23t57-23l105-106v344q0 33 24 57t56 23 57-23 24-57v-344l110 110q24 24 57 24t56-24q24-23 24-56t-24-57l-247-247q-24-25-57-25-32 0-56 25l-242 242q-24 24-24 57z" horiz-adv-x="937.5" />
<glyph glyph-name="upload" unicode="&#xe85b;" d="m0 84v73q0 33 24 56t57 24 56-24 24-56v-73q0-17 12-29t30-13h531q18 0 30 13t12 29v73q0 33 24 56t56 24 57-24 24-56v-73q0-84-59-143t-144-60h-531q-84 0-143 59t-60 144z m155 407q0 33 24 57l247 247q23 23 57 23 33 0 56-23l243-242q23-24 23-57t-23-57q-24-23-57-23t-57 23l-105 105v-344q0-33-24-57t-56-24q-33 0-57 24t-24 57v344l-110-110q-24-23-57-23t-56 23-24 57z" horiz-adv-x="937.5" />
<glyph glyph-name="download-cloud" unicode="&#xe85c;" d="m0 274q2 54 23 103t63 87 95 61q64 28 154 15 39 79 113 127t164 49q83 0 152-41t109-111 40-148v-29h7q80 32 159-4t112-113q31-81-4-159t-113-113l-17-4t-16-4-13-3-15-2-13-1h-724q-84 0-154 49t-102 134q-23 52-20 107z m448 103q-6-9 4-20l131-219q8-8 15-8 3 0 7 2t6 4l1 2 140 219q6 12 0 21t-22 9h-52v102h-153v-102h-59q-12 0-18-10z" horiz-adv-x="1205.6" />
<glyph glyph-name="upload-cloud" unicode="&#xe85d;" d="m0 251q-2 45 10 86t34 78 58 65 77 44q77 30 156 13 36 81 111 130t166 49q62 0 118-24t97-65 65-97 25-119q0-9-2-27 1 0 3 1t3 2q80 31 159-4t110-116q20-55 12-108t-43-96-88-65q-35-13-73-14h-298v168h68q19 0 25 11t-4 26l-171 275q-6 10-16 10-4 0-8-3t-6-5l-2-2-171-275q-10-15-3-26t25-11h67v-168h-224v1q-86 0-158 48t-103 131q-17 42-19 87z" horiz-adv-x="1205.1" />
<glyph glyph-name="reply" unicode="&#xe85e;" d="m0 380q0 6 3 13t7 10l3 3 377 274q20 16 35 6t15-41v-111l27-2q96-8 181-54t146-117 94-166 33-196q-61 107-161 175t-223 78q-49 4-97-1v-138q0-29-15-40t-35 6l-377 274q-13 11-13 26z" horiz-adv-x="920.9" />
<glyph glyph-name="pencil" unicode="&#xe85f;" d="m0-119l60 281 627 628q21 21 51 21t50-20l121-122q21-21 21-50t-21-50l-628-628z m68 69l194 44 24 25-149 149-24-24z" horiz-adv-x="930.2" />
<glyph glyph-name="export" unicode="&#xe860;" d="m0 90v490q0 70 50 119t119 50h129q29 0 48-20t20-46q0-29-20-48t-48-20h-129q-15 0-25-10t-10-25v-490q0-14 10-25t25-10h588q15 0 25 10t10 25v60q0 27 20 47t46 20q28 0 48-20t19-47v-60q0-70-49-119t-119-50h-588q-70 0-119 50t-50 119z m244 90q45 81 121 132t167 59q42 3 74-2v-103q0-22 11-30t27 4l283 207q10 8 10 19 0 6-2 11t-6 7l-2 2-283 207q-15 12-27 4t-11-30v-84q-7 0-20-1-73-7-137-41t-109-89-72-124-24-148z" horiz-adv-x="937.5" />
<glyph glyph-name="print" unicode="&#xe861;" d="m0 92v512q0 35 26 60t62 25h59v14q0 36 26 61t61 24h469q36 0 62-24t25-61v-20q0 1 1 3t1 3h57q36 0 62-25t26-60v-512q0-35-26-60t-62-25h-59v-10q0-35-25-60t-62-26h-469q-36 0-61 26t-26 60v10h-59q-36 0-62 25t-26 60z m205-95q0-11 9-19t20-8h469q12 0 21 8t9 19v339q-21 12-45 12h-439q-23 0-44-12v-339z m0 612q16-5 30-5h468q12 0 30 5v94q0 11-9 19t-21 8h-469q-12 0-20-8t-9-19v-94z" horiz-adv-x="937.5" />
<glyph glyph-name="retweet" unicode="&#xe862;" d="m2 268q5 9 21 9h63v344q0 31 22 54t54 22h479l-103-154h-300v-266h63q16 0 21-9t-3-22l-143-234q-6-8-14-8-4 0-7 2t-6 4l-1 2-144 234q-8 13-2 22z m282-264l103 153h300v266h-64q-15 0-21 10t3 21l144 234q5 9 13 9 4 0 7-2t6-4l1-3 144-234q8-12 3-21t-22-10h-63v-343q0-32-22-54t-54-22h-478z" horiz-adv-x="924.8" />
<glyph glyph-name="comment" unicode="&#xe863;" d="m0 404q0 67 27 130t75 114 114 89 145 59 166 21 166-21 146-59 113-89 76-114 26-130q0-84-42-160t-112-131-168-88-205-33q-105 0-201 31l-121-85q-67-42-94-24t-12 100l25 125q-60 55-92 122t-32 143z" horiz-adv-x="1054.7" />
<glyph glyph-name="chat" unicode="&#xe864;" d="m0 480q0 107 68 199t186 145 255 53q104 0 198-32t162-84 108-127 41-155q0-64-26-125t-73-110-109-85-140-57-161-20q-103 0-194 30l-116-81q-65-42-91-25t-11 97l23 121q-57 53-88 119t-32 136z m650-468q118 23 215 82t158 145 75 186q89-35 142-102t54-147q0-49-22-96t-62-83l17-86q10-55-8-67t-64 17l-82 57q-63-21-136-21-87 0-163 31t-124 84z" horiz-adv-x="1294.4" />
<glyph glyph-name="bell" unicode="&#xe865;" d="m0 440q1 22 15 42 15 22 39 34t49 10q2 0 8-1 41-3 75 7 92 30 239 176 54 55 126 74t145 0 126-74 74-126 0-145-74-126q-40-41-71-77t-51-63-33-52-19-41-9-33-2-27 2-21q1-5 1-8 2-25-10-49t-35-40q-20-13-42-14t-46 6q0 0-10 2t-21 6-28 10-38 16-44 24-51 33-56 44-61 57q-28 27-51 54t-41 52-32 46-24 42-18 36-12 31-7 24-5 16-2 9q-7 25-6 46z m98-65q5-30 24-67t52-83 77-88q88-87 170-129t110-14q21 23 2 77t-70 120q-8-11-14-17-33-33-81-33t-80 33q-33 33-33 81t33 81q6 5 17 13-67 52-120 71t-77-2q-15-14-10-43z" horiz-adv-x="904.8" />
<glyph glyph-name="attention" unicode="&#xe866;" d="m0 350q0 95 37 182t100 149 149 100 183 37q95 0 181-37t150-100 100-149 37-182q0-95-37-182t-100-150-150-100-181-37q-96 0-183 37t-149 100-100 150-37 182z m387 196l27-244q2-21 17-35t36-17q24-3 43 12t21 40l27 244v17q-4 35-31 58t-63 19-58-31-19-63z m12-411q0-30 22-52t51-21 52 21 22 52-22 52q-20 20-52 20t-51-20q-22-22-22-52z" horiz-adv-x="937.5" />
<glyph glyph-name="attention-alt" unicode="&#xe867;" d="m0 350q0 95 37 182t100 149 149 100 183 37q95 0 182-37t149-100 100-149 37-182q0-95-37-182t-100-150-149-100-182-37q-96 0-183 37t-149 100-100 150-37 182z m117 0q0-96 47-177t128-128 177-47q95 0 176 47t128 128 47 177q0 95-47 176t-128 128-176 47q-72 0-137-28t-112-75-75-112-28-136z m271 196q-4 36 19 63t58 31q35 3 62-19t31-58q1-9 0-17l-27-244q-2-24-21-39t-43-13q-21 2-36 16t-17 36z m11-411q0 31 22 52 20 20 52 20t51-20q22-21 22-52t-22-52q-20-22-52-22-30 0-51 22-22 21-22 52z" horiz-adv-x="937.5" />
<glyph glyph-name="location" unicode="&#xe868;" d="m0 473q0 70 27 134 25 61 74 111 47 47 110 73 63 27 134 27 72 0 135-27 62-26 110-73 48-49 74-111 27-64 27-134t-27-134q-18-40-36-65l-229-347q-22-35-53-35t-55 35l-228 347q-22 31-36 65-27 64-27 134z m217 0q0-53 37-91 38-38 91-38 54 0 91 38 38 37 38 91 0 53-38 91-37 38-91 38-53 0-91-38-37-38-37-91z" horiz-adv-x="691.4" />
<glyph glyph-name="trash" unicode="&#xe869;" d="m0 684q0 37 59 67t161 49 222 18q121 0 223-18t161-49 59-67q-10-80-39-227t-55-276-29-138q-6-36-39-68t-81-51-100-31-100-12-100 12-99 31-81 51-39 68q-4 21-33 160t-56 278-34 203z m126-223l38-183 87 75z m6 193q0-31 91-54t219-22q129 0 220 22t91 54q0 32-91 55t-220 22-219-22-91-55z m55-488l21-102 49 42z m8 312l101-87 71 62q-95 6-172 25z m5-246l101-88 96 83-101 87z m49-209q72-30 149-38l-97 83z m91 330l101-88 96 83-99 89z m6-247l102-88 95 83-102 88z m140 121l101-87 92 80-98 89z m14-241q71 8 134 36l-47 41z m8 466l73-66 106 91q-79-20-179-25z m117-105l93-84 41 199z m7-246l44-39 20 96z" horiz-adv-x="884.8" />
<glyph glyph-name="doc" unicode="&#xe86a;" d="m0-31v761q0 37 26 62t61 26h356q3 0 6 0h0q38-3 61-26l255-245q10-12 16-25 2-4 2-6 1-1 2-5t3-6q2-11 2-21v-515q0-36-25-62t-62-26h-616q-36 0-61 26t-26 62z m87 0h616v465h-133q-73 0-124 52t-52 124v120h-307v-761z m396 641q0-36 25-62t62-25h118l-205 194v-107z" horiz-adv-x="790.5" />
<glyph glyph-name="newspaper" unicode="&#xe86b;" d="m0 64v572q0 39 28 67t67 27h558q40 0 68-27t28-67v-64h93q39 0 67-28t28-67v-413q0-39-28-67t-67-27h-747q-39 0-67 27t-28 67z m87 43q1-20 15-34t34-15h517q7 0 8 6v528q0 21-15 35t-36 15h-472q-21 0-35-14t-16-35v-486z m74 70q0 18 13 31t31 13h133q18 0 31-13t13-31-13-31-31-13h-133q-18 0-31 13t-13 31z m0 173q0 18 13 31t31 13h338q18 0 31-13t13-31q0-18-13-31t-31-13h-338q-18 0-31 13t-13 31z m0 173q0 18 13 31t31 13h338q18 0 31-13t13-31q0-18-13-31t-31-13h-338q-18 0-31 13t-13 31z m588-416q0-20 14-34t33-15h5q20 1 34 15t14 35v369q0 7-7 7h-93v-377z" horiz-adv-x="937.5" />
<glyph glyph-name="folder" unicode="&#xe86c;" d="m0 55v512q0 35 26 60t62 25h30q3 34 28 56t59 23h196q34 0 59-23t28-56h361q36 0 62-25t26-60v-512q0-35-26-61t-62-25h-761q-36 0-62 25t-26 61z" horiz-adv-x="937.5" />
<glyph glyph-name="folder-open" unicode="&#xe86d;" d="m0 57v508q0 36 25 60t60 25h29q3 33 27 55t58 23h190q34 0 58-23t27-55h351q35 0 60-25t25-60v-84h66q35 0 55-25t14-60l-99-339q-6-35-36-60t-66-25h-759q-35 0-60 25t-25 60z m85 170l49 169q7 35 37 60t66 25h588v84h-740v-338z m40-170h719q5 0 12 5t7 11l0 3 1 4 92 316h-719q-5 0-11-5t-7-11l-1-4-1-4z" horiz-adv-x="1047.4" />
<glyph glyph-name="folder-empty" unicode="&#xe86e;" d="m0 55v512q0 35 26 60t62 25h30q3 34 28 56t59 23h196q35 0 60-23t27-56h362q36 0 61-25t26-60v-512q0-35-26-61t-61-25h-762q-36 0-62 25t-26 61z m88 0h762v512h-762v-512z" horiz-adv-x="937.5" />
<glyph glyph-name="folder-open-empty" unicode="&#xe86f;" d="m0 57v508q0 36 25 60t60 25h29q3 33 27 55t58 23h190q34 0 58-23t27-55h351q35 0 60-25t25-60v-84h66q35 0 55-25t14-60l-99-339q-6-35-36-60t-66-25h-759q-35 0-60 25t-25 60z m125 0h719q5 0 11 5t7 11l2 7 92 316h-719q-5 0-11-5t-7-11l-3-8z" horiz-adv-x="1046.9" />
<glyph glyph-name="cog" unicode="&#xe870;" d="m0 352q0 38 7 83 50-4 95 19t70 68q25 45 23 95t-30 91q64 56 150 86 23-41 64-66t90-24 89 24 64 66q85-30 150-86-21-39-21-85t23-86q24-41 65-64t87-23q11-49 11-98 0-32-7-74-45-1-84-25t-63-63q-25-44-23-92t26-89q-66-60-145-93-23 42-64 67t-90 25q-53 0-96-28t-64-74q-82 26-153 82 28 41 30 91t-23 95q-27 46-74 70t-98 17q-9 41-9 91z m293 0q0-73 51-124t125-51 124 51 51 124-51 124-124 52-125-52-51-124z" horiz-adv-x="937.5" />
<glyph glyph-name="calendar" unicode="&#xe871;" d="m0-31v761q0 37 26 62t62 26h762q36 0 61-26t26-62v-761q0-36-26-62t-61-26h-762q-36 0-62 26t-26 62z m88 0h762v527h-762v-527z m60 59v175h176v-175h-176z m0 234v176h176v-176h-176z m235-234v175h175v-175h-175z m0 234v176h175v-176h-175z m234-234v175h176v-175h-176z m0 234v176h176v-176h-176z" horiz-adv-x="937.5" />
<glyph glyph-name="login" unicode="&#xe872;" d="m0 359q0 33 24 57t57 23h344l-111 111q-24 23-24 56t24 58q24 23 57 23t57-23l247-248q24-24 24-57t-24-57l-242-242q-24-24-57-24t-57 24-23 56 23 58l106 105h-344q-34 0-57 23t-24 57z m582-397q0 33 23 57t57 23h72q18 0 30 13t12 29v532q0 17-12 29t-30 13h-72q-33 0-57 23t-23 57 23 57 57 23h72q84 0 144-59t59-143v-532q0-84-60-144t-143-59h-72q-33 0-57 24t-23 57z" horiz-adv-x="937.5" />
<glyph glyph-name="logout" unicode="&#xe873;" d="m0 84q0-84 59-143t144-60h72q33 0 57 24t23 57-23 57-57 23h-72q-18 0-30 13t-12 29v532q0 17 12 29t30 13h72q33 0 57 23t23 57-23 57-57 23h-72q-84 0-144-59t-59-143v-532z m238 252q0 33 24 57t57 23h344l-110 111q-24 23-24 57t24 57q23 23 57 23t56-23l248-248q23-24 23-57t-23-57l-243-242q-23-23-57-23t-57 23q-23 23-23 57t24 57l105 105h-344q-33 0-57 23t-24 57z" horiz-adv-x="937.5" />
<glyph glyph-name="mic" unicode="&#xe874;" d="m0 294v106q0 18 13 31t30 12 31-12 13-31v-106q0-89 65-152t155-63q90 0 154 63t65 152v106q0 18 13 31t31 12 31-12 12-31v-106q0-113-74-197t-187-101v-43h137q18 0 31-12t13-31q0-18-12-30t-32-13h-361q-18 0-31 13t-13 30q0 18 13 31t31 12h137v42q-74 10-134 52t-96 107-35 140z m144 5v374q0 66 48 113t115 47q67 0 114-47t48-113v-374q0-66-48-113t-114-47q-67 0-115 47t-48 113z" horiz-adv-x="613.8" />
<glyph glyph-name="mic-off" unicode="&#xe875;" d="m0 731q0-18 13-31l794-782q13-12 31-12t31 12q13 12 13 31t-13 30l-794 783q-12 12-31 12t-31-12q-13-13-13-31z m119-437v106q0 18 13 31t31 12q18 0 31-12t13-31v-106q0-89 64-152t155-63q59 0 107 28l64-63q-57-37-125-48v-43h137q18 0 31-12t13-31q0-18-13-30t-31-13h-362q-18 0-31 13t-13 30q0 18 13 31t31 12h137v42q-74 10-135 52t-95 107-35 140z m144 5v73l225-220q-31-13-62-13-68 0-115 47t-48 113z m0 359v15q0 66 48 113t115 47 115-47 47-113v-336z m381-376q0 2 0 6t1 6v106q0 18 12 31t31 12q19 0 32-12t13-31v-106q0-42-14-86z" horiz-adv-x="881.8" />
<glyph glyph-name="clock" unicode="&#xe876;" d="m0 350q0 95 37 182t100 149 150 100 182 37 182-37 149-100 100-149 37-182-37-182-100-150-149-100-182-37-182 37-150 100-100 150-37 182z m117 0q0-96 47-177t128-128 177-47q95 0 176 47t128 128 47 177q0 95-47 176t-128 128-176 47q-72 0-137-28t-112-75-75-112-28-136z m293 0v224q0 24 17 41t42 18 41-18 17-41v-200l142-141q17-17 17-42t-17-41-41-17q-25 0-42 17l-159 158q-1 2-4 5t-3 4q-1 2-2 4l-2 3t-1 4q-1 0-2 5-2 5-2 5-1 6-1 12z" horiz-adv-x="937.5" />
<glyph glyph-name="stopwatch" unicode="&#xe877;" d="m0 617l246 246 81-82-40-41 42-43q58 34 124 52v101h231v-101q99-26 178-90t124-158 45-200q0-94-36-180t-99-148-148-99-179-37-181 37-147 99-99 148-37 180q0 123 62 231l-44 44-41-41z m222-316q0-94 46-174t127-127 174-47 174 47 126 127 47 174-47 174-126 126-174 47-174-47-127-126-46-174z m118 130q0 24 16 41 17 17 41 17t41-17l140-140h198q24 0 41-17t16-41q0-25-17-40-17-18-40-18h-222q-3 0-11 1l-5 2q-1 0-3 1t-3 0q-1 1-3 2t-2 1l-5 3q-3 2-9 8l-157 156q-16 17-16 41z" horiz-adv-x="1031.7" />
<glyph glyph-name="hourglass" unicode="&#xe878;" d="m0-37v70q0 22 12 49t24 46 38 55l24 33t26 36 22 33 18 35 5 30-5 30-18 35-22 33-26 36l-24 32q-26 37-38 55t-24 46-12 49v70q0 34 24 58t59 24h419q35 0 59-24t25-58v-70q0-22-12-49t-24-46-38-55l-24-32t-27-36-22-33-17-36-6-29 6-30 17-35 22-33 27-37l24-32q25-36 38-55t24-46 12-49v-70q0-34-25-58t-59-24h-419q-34 0-59 24t-24 58z m100 35h40q0 9 2 17t9 18 12 16 17 18 19 16 22 17 23 16 25 18 24 17q8-6 26-19t28-19 25-19 25-19 19-19 16-19 10-19 4-20h40v35q0 7-14 31-8 14-42 63-53 75-71 108-34 64-34 115 0 26 7 54t25 57 30 50 36 51l7 10q33 47 42 64 6 9 9 17t4 11l1 2v35h-386v-35q1-8 13-30 10-17 43-64 53-75 71-108 34-63 34-114 0-27-8-54t-25-58-29-49-36-52q-1-1-2-2t-2-2-2-3-1-3q-34-49-43-63-13-24-13-31v-35z" horiz-adv-x="585.9" />
<glyph glyph-name="zoom-in" unicode="&#xe879;" d="m11 376q-24 91 0 181t92 158q51 51 115 77t134 26q69 0 134-26t115-77q54-53 80-124t23-143-38-139q31-10 52-31l181-182q38-37 38-89t-38-89-88-37q-52 0-89 37l-182 182q-20 20-31 52-75-37-157-37-69 0-134 26t-115 77q-68 68-92 158z m107 91q0-98 68-166 34-33 76-51t90-18q98 0 166 69 33 33 51 76t18 89q0 98-69 167-69 68-166 68-97 0-166-68t-68-166z m624 200q0 12 9 21t21 8h93v93q0 13 9 21t20 8 21-8 8-21v-93h94q11 0 20-8t9-21-9-21-20-8h-94v-94q0-12-8-20t-21-9q-12 0-20 9-9 8-9 20v94h-93q-12 0-21 8-9 9-9 21z" horiz-adv-x="1045.9" />
<glyph glyph-name="zoom-out" unicode="&#xe87a;" d="m11 376q-24 91 0 181t92 158q51 51 115 77t134 26q69 0 134-26t115-77q54-53 80-124t23-143-38-139q31-10 52-31l181-182q38-37 38-89t-38-89-88-37q-52 0-89 37l-182 182q-23 22-31 52-76-37-157-37-69 0-134 26t-115 77q-68 68-92 158z m107 91q0-98 68-166 34-33 76-51t90-18 90 18 76 51q33 33 51 76t18 89q0 98-69 167-33 32-76 50t-90 18q-97 0-166-68t-68-166z m624 200q0 12 9 21t21 8h244q12 0 21-8t9-21-9-21-21-8h-244q-12 0-21 8-9 9-9 21z" horiz-adv-x="1045.9" />
<glyph glyph-name="down-open" unicode="&#xe87b;" d="m0 533q0 25 18 43t44 18 42-18l305-303 304 303q18 18 43 18t43-18q18-18 18-43t-18-43l-390-391-391 391q-18 19-18 43z" horiz-adv-x="817.4" />
<glyph glyph-name="left-open" unicode="&#xe87c;" d="m0 353l391 391q18 18 43 18 24 0 43-18 18-18 18-44t-18-43l-304-304 304-305q18-17 18-43t-18-43q-18-18-43-18t-43 18z" horiz-adv-x="495.1" />
<glyph glyph-name="right-open" unicode="&#xe87d;" d="m0 0q0 25 18 43l305 304-305 304q-18 18-18 44t18 43 44 18 43-18l390-391-390-391q-19-18-43-18t-44 18q-18 18-18 44z" horiz-adv-x="495.1" />
<glyph glyph-name="up-open" unicode="&#xe87e;" d="m0 167q0 26 18 43l391 391 390-391q17-17 17-43 0-26-17-44-18-17-44-17t-43 17l-303 305-305-305q-18-17-43-17t-43 17q-18 18-18 44z" horiz-adv-x="816.9" />
<glyph glyph-name="down" unicode="&#xe87f;" d="m0 283q0 25 18 43t44 18 42-18l244-243v642q0 25 18 43t43 18 43-18 18-43v-642l243 243q18 18 43 18t43-18q18-18 18-43t-18-44l-390-390-391 390q-18 20-18 44z" horiz-adv-x="817.4" />
<glyph glyph-name="left" unicode="&#xe880;" d="m0 353l390 391q19 18 44 18 25 0 43-18t18-44-18-43l-243-243h642q25 0 43-18t18-43-18-43-43-18h-642l243-243q18-18 18-44t-18-43-43-18-44 18z" horiz-adv-x="938" />
<glyph glyph-name="right" unicode="&#xe881;" d="m0 347q0 26 18 43t43 17h642l-242 244q-19 18-19 44t19 42q17 19 42 19t44-19l390-390-390-391q-20-18-44-18t-42 18-19 44 19 43l242 242h-642q-25 0-43 18t-18 44z" horiz-adv-x="938" />
<glyph glyph-name="up" unicode="&#xe882;" d="m0 354q0 26 18 44l391 390 390-390q18-18 18-44 0-26-18-43-18-18-43-18t-43 18l-243 243v-642q0-25-18-43t-43-18q-26 0-44 18t-17 43v642l-244-243q-18-18-43-18t-43 18q-18 17-18 43z" horiz-adv-x="817.4" />
<glyph glyph-name="down-bold" unicode="&#xe883;" d="m0 418h215v400h360v-400h215l-396-537z" horiz-adv-x="790.5" />
<glyph glyph-name="left-bold" unicode="&#xe884;" d="m0 365l527 381v-205h410v-352h-410v-235z" horiz-adv-x="937.5" />
<glyph glyph-name="right-bold" unicode="&#xe885;" d="m0 170v359h401v217l536-397-536-395v216h-401z" horiz-adv-x="937.5" />
<glyph glyph-name="up-bold" unicode="&#xe886;" d="m0 282l397 536 394-536h-216v-401h-359v401h-216z" horiz-adv-x="791" />
<glyph glyph-name="down-fat" unicode="&#xe887;" d="m5 538q13 23 53 23h147v205q0 21 16 37t37 15h304q22 0 38-15t15-37v-205h147q40 0 53-23t-7-54l-363-582q-1-2-5-6t-12-9-18-6-18 5-13 11l-4 5-363 582q-21 32-7 54z" horiz-adv-x="820.3" />
<glyph glyph-name="left-fat" unicode="&#xe888;" d="m0 350q0 9 5 17t11 14l5 4 581 362q32 21 55 8t22-54v-146h205q21 0 37-16t16-37v-304q0-22-16-38t-37-15h-205v-147q0-40-22-53t-55 8l-581 362q-21 14-21 35z" horiz-adv-x="937.5" />
<glyph glyph-name="right-fat" unicode="&#xe889;" d="m0 198v305q0 21 16 37t37 15h205v147q0 40 22 53t55-8l582-361q20-15 20-35 0-10-5-18t-11-13l-4-4-582-363q-32-21-55-8t-22 53v147h-205q-21 0-37 16t-16 37z" horiz-adv-x="937.5" />
<glyph glyph-name="up-fat" unicode="&#xe88a;" d="m5 162q-14 22 7 54l363 582q14 20 34 20 10 0 19-5t12-10l5-5 362-582q21-32 8-54t-54-23h-147v-205q0-21-15-37t-37-16h-305q-21 0-37 16t-15 37v205h-147q-40 0-53 23z" horiz-adv-x="819.3" />
<glyph glyph-name="ccw" unicode="&#xe88b;" d="m2 439q5 8 20 8h69q17 79 59 147t103 118 136 78 161 28q95 0 181-37t150-99 100-150 37-181-37-182-100-150-150-100-181-38q-162 0-289 100-24 18-27 48t14 54q19 24 49 27t53-15q89-68 200-68 87 0 162 44t117 117 43 163q0 65-26 125t-68 103-103 69-125 25q-107 0-192-63t-116-163h43q15 0 20-8t-3-21l-135-221q-6-8-14-8-3 0-6 2t-5 4l-1 2-136 221q-8 13-3 21z" horiz-adv-x="1018.1" />
<glyph glyph-name="shuffle" unicode="&#xe88c;" d="m0 34v173h229q28 0 52 10 31-84 98-145-71-38-150-38h-229z m0 458v173h229q65 0 123-25t101-67 68-101 25-123q0-58 41-100t101-42h85q1 0 3 0t4 0v52q0 16 10 22t22-3l234-144q8-5 8-14 0-3-2-7t-4-5l-2-2-234-143q-13-9-22-3t-10 21v54q-1 0-4-1t-3 0h-85q-64 0-123 25t-101 67-67 101-25 122q0 59-42 101t-101 42h-229z m538 136q68 37 150 37h85q1 0 3 0t4 0v54q0 15 10 21t22-3l234-144q8-6 8-14 0-4-2-7t-4-5l-2-2-234-144q-13-8-22-2t-10 21v53q-1 0-4 0t-3-1h-85q-26 0-51-10-32 85-99 146z" horiz-adv-x="1054.7" />
<glyph glyph-name="play" unicode="&#xe88d;" d="m0 11v677q0 39 22 52t53-8l564-349q20-14 20-33 0-9-5-18t-10-12l-5-4-564-349q-31-20-53-7t-22 51z" horiz-adv-x="658.7" />
<glyph glyph-name="pause" unicode="&#xe88e;" d="m0 5q0-27 19-46t45-19h127q27 0 45 19t19 46v691q0 27-19 45t-45 19h-127q-27 0-45-19t-19-45v-691z m480 0q0-27 19-46t45-19h127q26 0 45 19t19 46v691q0 27-19 45t-45 19h-127q-27 0-45-19t-19-45v-691z" horiz-adv-x="735.4" />
<glyph glyph-name="stop" unicode="&#xe88f;" d="m0 4v691q0 26 19 45t45 21h693q27 0 45-19t19-46v-691q0-27-19-46t-45-20h-693q-26 0-45 19t-19 46z" horiz-adv-x="821.3" />
<glyph glyph-name="to-end" unicode="&#xe890;" d="m0 25v679q0 41 21 46t64-18l537-339v311q0 21 18 39t38 18h114q39 0 62-17t22-40v-679q0-23-22-40t-62-17h-114q-21 0-38 18t-18 39v283l-537-340q-43-19-64-4t-21 61z" horiz-adv-x="876.5" />
<glyph glyph-name="to-start" unicode="&#xe891;" d="m0 33v634q0 24 17 42t42 17h117q24 0 41-17t17-42v-272l516 320q29 19 50 7t21-49v-646q0-37-21-49t-50 7l-516 319v-271q0-25-17-42t-41-17h-117q-24 0-41 17t-18 42z" horiz-adv-x="821.3" />
<glyph glyph-name="fast-forward" unicode="&#xe892;" d="m0 10v679q0 38 22 52t53-8l533-330v286q0 38 22 52t53-8l542-335v285q0 26 18 44t44 19h122q26 0 44-19t18-44v-667q0-25-18-43t-44-19h-122q-26 0-44 19t-18 43v286l-542-336q-31-20-53-7t-22 51v287l-533-331q-31-20-53-7t-22 51z" horiz-adv-x="1471.7" />
<glyph glyph-name="fast-backward" unicode="&#xe893;" d="m0 16v667q0 26 18 44t44 19h123q25 0 43-19t18-44v-285l543 335q30 21 52 8t22-52v-286l534 330q30 21 52 8t22-52v-679q0-39-22-51t-52 7l-534 330v-286q0-39-22-51t-52 7l-543 336v-286q0-26-18-44t-43-18h-123q-26 0-44 18t-18 44z" horiz-adv-x="1471.7" />
<glyph glyph-name="trophy" unicode="&#xe894;" d="m0 545q1 35 18 64 20 33 57 48t82 8q-1 32-1 50 0 44 69 74t188 29q119 0 188-29t69-74q0-2-1-50 44 7 82-8t58-48q17-29 17-64t-16-68q-14-27-46-51t-94-61q-36-22-53-33t-46-31-49-38-31-36q-12-25-12-57 0-49 32-92t74-57q41-12 55-27t14-43-67-49-174-21-174 21-67 49 14 43 56 27q42 13 74 57t32 92q0 32-13 57-9 14-26 31t-31 27-41 29-39 26-42 25q-41 24-63 39t-45 34-32 39q-17 34-16 68z m90 19q-12-19 2-49 10-18 99-72-19 58-27 133-2 1-7 2t-6 2q-18 3-20 3-29 0-41-19z m161 147q0-20 48-33t114-14q67 0 114 14t47 33-47 33-114 14-114-14-48-33z m384-268q90 54 99 72 14 30 2 49-16 25-61 16-3-1-12-4-10-79-28-133z" horiz-adv-x="826.7" />
<glyph glyph-name="monitor" unicode="&#xe895;" d="m0 161v525q0 37 26 62t62 26h879q36 0 62-26t25-62v-525q0-36-25-62t-62-26h-254q8-79 29-91 14-8 26-14t18-6l6-1v-35h-527v35q17 2 49 21 21 13 29 91h-255q-36 0-62 26t-26 62z" horiz-adv-x="1054.7" />
<glyph glyph-name="tablet" unicode="&#xe896;" d="m0-31v761q0 37 26 62t61 26h526q36 0 62-26t25-62v-761q0-36-25-62t-62-26h-526q-36 0-61 26t-26 62z m308 68q0-19 13-31t31-13 31 13 12 31-12 31-31 12-31-12-13-31z" horiz-adv-x="700.7" />
<glyph glyph-name="mobile" unicode="&#xe897;" d="m0-18v736q0 42 29 71t70 29h359q41 0 70-29t29-71v-736q0-42-29-71t-70-30h-359q-41 0-70 29t-29 72z m234 61q0-19 13-32t31-13 31 14 14 31-14 31-31 12-31-12-13-31z" horiz-adv-x="556.6" />
<glyph glyph-name="data-science" unicode="&#xe898;" d="m0 350q0 95 37 182t100 149 149 100 183 37q95 0 182-37t149-100 100-149 37-182q0-95-37-182t-100-150-149-100-182-37q-96 0-183 37t-149 100-100 150-37 182z m88 0q0-49 14-99 35 95 103 164-1 2-2 6t-1 5h-6q-49 0-102-14-6-32-6-62z m20 122q47 9 88 9 2 0 6 0t5 0q10 20 29 32t43 12q28 0 50-18 90 46 194 48 5 11 11 19-73 96-188 136-84-29-147-91t-91-147z m27-304q42-77 115-129t161-65q85 49 137 128-19 23-19 52 0 34 25 58-35 64-89 112t-121 74q-25-33-65-33-19 0-37 10-85-89-107-207z m223 291q1-1 1-4t0-5q80-30 143-86t103-130h1q11 48 11 93 0 55-18 117h-2q-26 0-47 16t-29 40q-87-3-163-41z m79 270q83-47 142-126 9 2 18 2 31 0 54-21t25-51q91-30 162-91-32 125-134 207t-235 82q-5 0-10 0t-12-1-10-1z m66-758q48 4 99 23 0 3 1 11t1 14q0 22-4 56-1 0-4 0-38-58-93-104z m148 493q21-70 21-137 0-55-14-110 32-24 32-63 0-41-37-67 6-34 6-66 87 50 139 138t52 191v1q-76 92-186 129-7-10-13-16z" horiz-adv-x="937.5" />
<glyph glyph-name="data-science-inv" unicode="&#xe899;" d="m0 350q0 95 37 182t100 149 149 100 183 37q84 0 161-28t140-82q41-31 71-75 96-126 96-283 0-95-37-182t-100-150-149-100-182-37q-96 0-183 37t-149 100-100 150-37 182z m94 62q50 14 102 14h6q0-1 1-5t2-6q-70-71-103-164 11-43 33-84 22 119 107 208 17-10 37-10 40 0 65 33 67-26 121-74t89-112q-25-24-25-58 0-29 19-52-54-80-137-128 29-4 58-4 17 0 34 1 56 46 93 104h2l1 0q5-31 5-56l-2-25q31 12 57 27 0 32-6 66 37 26 37 67 0 39-32 63 14 55 14 110 0 67-21 137 7 7 12 16 111-37 186-128 0 45-11 90-72 62-162 91-3 30-25 51t-54 21q-9 0-18-2-59 79-143 126-44-4-89-19 114-41 187-136-6-8-11-19-104-2-194-48-22 18-50 18-24 0-43-12t-29-33q-2 0-5 1t-6 0q-41 0-88-9-9-28-14-60z m264 47q80 39 163 41 8-24 29-40t47-16h2q18-60 18-117 0-48-12-93-39 74-103 130t-143 86q0 2 0 5t-1 4z" horiz-adv-x="937.5" />
<glyph glyph-name="inbox" unicode="&#xe89a;" d="m0 184v191q0 27 19 51l103 135q24 33 64 33h742q39 0 63-33l103-135q19-24 19-51v-191q0-32-23-55t-55-23h-957q-32 0-55 23t-23 55z m126 197q7-13 28-13h211q0-32 22-55t55-23h229q32 0 55 23t23 55h210q21 0 28 13t-4 29l-55 90q-11 18-34 30t-42 13h-590q-21 0-43-13t-33-30l-56-90q-11-17-4-29z" horiz-adv-x="1113.8" />
<glyph glyph-name="globe" unicode="&#xe89b;" d="m0 350q0 95 37 182t100 149 150 100 182 37 182-37 149-100 100-149 37-182q0-95-37-182t-100-150-149-100-182-37-182 37-150 100-100 150-37 182z m88 0q0-76 29-146t79-119 118-82 143-33q-7 8-11 33-1 7-2 25t-4 27q-1 7-17 55-5 15-11 19t-23 5q-8 1-24 1t-28 1-26 2-24 6-21 10-17 18-8 26q-11 62 38 103 25 21 52 28t64 6q24 0 42-14 22-18 44-19 5 0 22-2t28-2 26 1 23 7v7q0 2 1 7t1 10 0 7-6 6q-4 2-20 1t-20 4q-8 8 3 16t30 16 21 10q14 14-6 18-19 4-38-4-4-2-7-4-8-8-17-29-3-6-9-16t-9-15q-2 2-6 6t-5 6q-3 3-11 20-1 2-3 6t-2 6-3 7-4 4-5 3-7 0q-1-11 7-23t7-20q1-13-5-12t-15 13q-2 3-5 9t-5 9-6 6-9 4-12 0q-13-2-20-7-2-2-7-8t-10-8q-3-17-27-16-1 0-6 0t-8 1-8 1-7 2-4 4q-3 5 2 21t8 21 11 7 19 1 13-1q2 9-4 17t-8 10q-1 5-1 8t3 4 7 1h7t6 0q18 4 30 16 0 0 4 3t4 3l5 4t6 2 5 2 6-1q2-1 6-5t6-4q4-1 16 3 13 4 19 10t13 18q13 20 4 34-6 9-15 6t-14-12q-2-3-3-11t-4-12-6-8q-5-4-15-4t-17 2q-4 2-6 6t-2 7 0 10 1 9q0 4 1 7t2 6 4 6 4 4 5 5 5 5q8 7 16 12t20 4 17-1 20-4 18-4q17-3 36 18 3 3 9 8t8 9 2 11q0 7-1 24t-2 28 2 26 7 23q-62 23-128 23-47 0-95-12l0-2q0-19 2-21 4-6 16-8t22-2 18-7 5-18q-4-14-19-30t-32-29q-20-15-49-19-1 0-6 0t-7-1-8 0-9 0-8 1-7 1-6 3-4 6-1 7q1 8 9 16t17 10 21 7 17 5q1 12-4 17t-12 1-16-5-18-6-14 1q-3 8 5 13t9 7q5 11-8 19-29-16-53-35 11-2 17-6t7-15q0-4-2-8t-5-6-6-6-6-5q-14-14-21-25-3-4-7-21t-11-21q-12-7-16-1t-5 19v8t-1 3-4 2q-6 2-18-1-68-97-68-216z m493-72q-1-31 20-54 27-27 52-32 11-2 29 2t25 3q0-17-19-53-22-37-33-48-2-3-7-7t-7-6-5-7-4-6-1-8 2-9q1-2 4-9t3-8-1-9q-1-4-4-6t-6-4-7-3q-4-3-11-9t-13-9-12-8q116 38 190 138t74 224q0 12-2 36-4-5-5-12-2-17-2-21 0-3 1-14t0-18-4-12q-3-3-6-4t-8 2-7 6-7 7-7 5q-8 6-14 9t-13 6-15 2-15-4q-18-9-39-9-4 0-11 0t-13 1-11-1-10-4q1-11 8-20t17-10q5 0 7 2t5 4 5 5q7 5 23 4 1-26 0-31t-7-12-6-13q0-2-1-9t-2-11-4-7-7-9q-7-6-17-9t-17 3q-3 2-8 9t-9 11q-3 2-5 4t-5 5-4 5-4 5-4 7q-6 8-21 18t-19 14q-4-2-5-4t-1-8z" horiz-adv-x="937.5" />
<glyph glyph-name="globe-inv" unicode="&#xe89c;" d="m0 350q0 95 37 182t100 149 150 100 182 37 182-37 149-100 100-149 37-182q0-95-37-182t-100-150-149-100-182-37-182 37-150 100-100 150-37 182z m156 216q14 3 18 1 2-2 3-3t2-2 0-3v-5q1-29 21-18 7 4 11 21t6 21q5 9 22 25 2 1 6 5t6 6 5 6 2 8q0 10-7 15t-17 6q-44-35-78-83z m84-368q3-18 12-30t19-19 28-10 29-3 32-1 29-1q17-1 23-6t11-19q2-5 6-17t7-20 4-17q2-9 4-28t2-25q4-24 11-32 2 0 6-1t6 0q59 0 120 20 7 4 19 13t14 12q2 1 7 2t6 5 4 6q2 3 2 7t-2 6-2 6-4 7q-1 4-2 9t1 7 4 7 5 6 7 6 7 7q13 13 33 49 20 36 19 53-7 0-25-4t-29-1q-24 4-51 32-22 23-21 54 1 6 1 8t5 4q5-5 20-15t21-18q2-2 5-7t4-7 5-5 7-7 9-10 9-10q7-5 17-2t17 9q4 3 6 8t4 8 2 11 2 9q1 5 6 12t6 13 0 31q-16 0-23-4-2-1-7-7t-10-4q-11 0-17 9t-7 20q4 3 10 4t10 1 13 0 11-1q18 0 39 9 8 4 15 5t15-2 13-6 14-10q3-2 7-5t7-7 7-5 7-2 6 4q4 4 5 12t0 18-1 14l2 20q1 3 5 12-11 111-79 198t-171 124q-7-11-9-28t0-43 2-30q0-7-2-12t-8-8-9-8q-18-21-36-18-5 1-18 4t-20 4-17 1-19-4-17-12q-1-2-6-6t-6-6-4-6-4-7-1-8q0-2-1-9t0-10 2-7 6-7q6-3 16-2t16 4q6 4 9 18t4 14q5 10 14 12t15-6q9-13-4-35-7-12-13-17t-19-10q-1-1-4-2t-6-2-6 0q-2 1-6 5t-6 5q-12 3-30-14-14-13-30-15-2 0-6 0h-7t-7-1-3-4 1-8q1-3 7-11t5-16q-3 0-10 1t-13 0-11-2-9-6q-3-6-8-22t-2-20q4-8 33-8 24-2 27 15 4 2 9 8t8 8q7 6 20 7 7 1 12 1t9-5 6-5 5-9 5-9q10-15 17-13 4 1 3 12 0 7-7 19t-7 23q5 0 8 0t6-4 4-6 4-8 3-7q5-15 10-21 0 0 5-5t6-7q1 2 8 14t10 18q8 20 18 28 10 10 35 10 21 0 21-10-1-4-6-9-3-3-21-11t-30-15-3-17q6-5 20-4t20-1q4-2 6-6t1-7-1-9-2-8v-6q-11-7-28-8t-43 1-28 3q-21 1-44 19-11 8-19 11t-24 3q-71 2-115-34-50-42-39-104z m40 447q7-3 15-1t18 6 16 5 12-1 4-17q-4-1-17-5t-21-7-17-11-9-16q0-4 1-7t4-5 6-3 7-2 8 0 9 0 8 0 7 1 6 1q29 3 49 18 44 33 51 59 3 12-5 18t-18 7-22 2-16 8q-2 2-2 21 0 2 0 2-65-21-87-34 12-9 8-19-1-1-9-7t-6-13z" horiz-adv-x="937.5" />
<glyph glyph-name="flash" unicode="&#xe89d;" d="m0 345l387 467q3 4 9 4t9-3q6-5 4-13l-104-343 259-104-385-465q-3-4-9-5t-9 3q-7 6-4 13l104 344z" horiz-adv-x="564" />
<glyph glyph-name="cloud-1" unicode="&#xe89e;" d="m0 257q-2 44 10 86t35 78 57 64 77 45q77 30 156 13 36 81 111 130t166 49q62 0 118-25t97-64 65-98 25-118q0-9-2-27 1 0 3 1t3 1q81 31 159-3t110-116q20-55 12-108t-43-97-88-64q-37-14-73-14h-718v0q-86 0-158 49t-103 130q-17 43-19 88z" horiz-adv-x="1205.1" />
<glyph glyph-name="coverflow" unicode="&#xe89f;" d="m0 193q0-8 8-13t21-6 21 6 8 13v314q0 8-8 13t-21 5-21-5-8-13v-314z m124-58q0-8 9-14t20-5 21 5 9 14v430q0 8-9 14t-21 5-20-5-9-14v-430z m141-39q0-16 11-28t27-11h477q16 0 27 11t11 28v508q0 16-11 27t-27 12h-477q-16 0-27-12t-11-27v-508z m635 39v430q0 8 9 14t20 5q12 0 21-5t9-14v-430q0-8-9-14t-21-5q-12 0-20 5t-9 14z m124 58v314q0 8 9 13t21 5 20-5 9-13v-314q0-8-9-13t-20-6-21 6-9 13z" horiz-adv-x="1083.5" />
<glyph glyph-name="coverflow-empty" unicode="&#xe8a0;" d="m0 195v312q0 8 9 13t21 5 20-5 9-13v-313q0-7-9-13t-20-6-21 6-9 13z m124-59v428q0 8 9 14t21 6q11 0 20-6t9-14v-428q0-8-9-13t-20-6q-12 0-21 6t-9 13z m141-39v507q0 15 11 26t27 12h477q16 0 27-12t12-26v-507q0-15-12-27t-27-11h-477q-16 0-27 11t-11 27z m87 49h379v409h-379v-409z m549-10v428q0 8 8 14t21 6 21-6 8-14v-428q0-8-8-13t-21-6-21 6-8 13z m124 59v312q0 8 9 13t20 5 21-5 8-13v-313q0-7-8-13t-21-6-20 6-9 13z" horiz-adv-x="1083.5" />
<glyph glyph-name="math" unicode="&#xe8a1;" d="m0 472q0 31 24 54t57 22h215l164-249 89 519h306q34 0 58-22t24-54-24-55-58-22h-170l-136-784-343 516h-125q-33 0-57 22t-24 53z" horiz-adv-x="937.5" />
<glyph glyph-name="math-circled" unicode="&#xe8a2;" d="m0 350q0 95 37 182t100 149 150 100 182 37 182-37 149-100 100-149 37-182q0-95-37-182t-100-150-149-100-182-37-182 37-150 100-100 150-37 182z m205 31q0-16 12-27t29-11h62l172-257 68 391h84q18 0 30 12t12 27-12 27-30 11h-152l-45-260-82 125h-107q-17 0-29-12t-12-26z" horiz-adv-x="937.5" />
<glyph glyph-name="math-circled-empty" unicode="&#xe8a3;" d="m0 350q0 95 37 182t100 149 149 100 183 37q95 0 182-37t149-100 100-149 37-182q0-95-37-182t-100-150-149-100-182-37q-96 0-183 37t-149 100-100 150-37 182z m88 0q0-77 30-148t81-121 122-82 148-30 147 30 122 82 81 121 31 148-31 147-81 122-122 81-147 30-148-30-122-81-81-122-30-147z m117 31q0 15 12 26t29 12h107l81-125 46 260h152q18 0 30-11t12-27-12-27-30-12h-84l-68-391-172 257h-62q-17 0-29 11t-12 27z" horiz-adv-x="937.5" />
<glyph glyph-name="paper-plane" unicode="&#xe8a4;" d="m6 772q12 13 45-1l1062-427q21-8 29-20t1-25-26-22l-189-91-132-233q-18-29-47-31t-53 21l-26 26q-2 3-3 3l-58 59-143-67q-32-14-65-2t-48 44l-345 720q-15 32-2 46z m202-133q-3-3 23-27l379-337q26-24 67-32t69 5q30 13 29 36t-31 40l-502 301q-32 18-34 14z" horiz-adv-x="1146.5" />
<glyph glyph-name="paper-plane-alt" unicode="&#xe8a5;" d="m0 350q0 95 37 182t100 149 150 100 182 37 182-37 149-100 100-149 37-182-37-182-100-150-149-100-182-37-182 37-150 100-100 150-37 182z m200 200q-6-7 2-23l171-358q8-16 25-22t31 1l72 33 29-29 1-1 13-14q12-12 27-10t23 15l66 116 94 46q15 8 14 17t-16 16l-529 213q-17 7-23 0z m101-66q1 2 16-7l252-149q15-10 15-21t-14-17q-16-7-35-3t-34 15l-188 168q-14 12-12 14z" horiz-adv-x="937.5" />
<glyph glyph-name="paper-plane-alt2" unicode="&#xe8a6;" d="m0 350q0 95 37 182t100 149 150 100 182 37 182-37 149-100 100-149 37-182-37-182-100-150-149-100-182-37-182 37-150 100-100 150-37 182z m88 0q0-104 51-191t139-139 191-51 191 51 138 139 52 191q0 77-31 147t-81 122-122 81-147 30-148-30-122-81-81-122-30-147z m118 200q7 7 23 0l529-213q11-4 15-10t1-12-13-11l-94-46-66-116q-9-14-24-15t-26 10l-13 14q-2 1-2 1l-29 29-71-33q-15-7-32-1t-24 22l-172 358q-8 16-2 23z m101-66q0-1 3-4t9-10l189-168q13-11 33-15t34 3q16 6 15 17t-16 21l-250 149q-8 4-12 6t-5 1z" horiz-adv-x="937.5" />
<glyph glyph-name="fontsize" unicode="&#xe8a7;" d="m0 49l227 602h146l208-552 123 326h91l142-376h-96l-26 76h-135l-27-76h-207l-42 121h-214l-43-121h-147z m222 231h149l-74 216z m478-87h94l-47 136z" horiz-adv-x="937.5" />
<glyph glyph-name="color-adjust" unicode="&#xe8a8;" d="m0 350q0 95 37 182t100 149 150 100 182 37 182-37 149-100 100-149 37-182-37-182-100-150-149-100-182-37-182 37-150 100-100 150-37 182z m397-226q0-46 32-79t79-32q3 0 11-1 81 12 148 60t105 120 39 158q0 90-44 167t-118 123-164 51q60-95 60-209 0-81-31-154t-85-127q-32-33-32-77z" horiz-adv-x="937.5" />
<glyph glyph-name="fire" unicode="&#xe8a9;" d="m0 175q0 14 2 27h-2q0 57 12 117t26 103 29 93 18 86-6 82q3 0 8-3t21-13 31-29 35-52 36-80q27 25 47 52t37 64 27 86 9 110q6-3 15-10t36-31 51-57 54-85 51-117 35-152 15-191q0-80-39-147t-107-107-147-40q-80 0-148 40t-107 107-39 147z m190-73q0-44 30-74t74-31 73 31 31 74q0 49-10 90t-22 66-27 41-23 24l-9 7q0-41-11-66t-32-45q-9 26-21 41t-18 19l-7 3q5-21-2-47t-16-60-10-64h0q0-3 0-9z" horiz-adv-x="587.4" />
<glyph glyph-name="chart-bar" unicode="&#xe8aa;" d="m0-50v557q0 21 15 36t36 15h122q21 0 36-15t15-36v-557q0-21-15-37t-36-15h-122q-21 0-36 15t-15 37z m362 0v379q0 21 15 36t36 15h122q21 0 36-15t15-36v-379q0-21-15-36t-36-15h-122q-21 0-36 15t-15 36z m352 0v801q0 21 14 36t36 15h122q21 0 36-15t15-36v-801q0-22-15-37t-36-15h-122q-21 0-36 15t-14 37z" horiz-adv-x="937.5" />
<glyph glyph-name="hdd" unicode="&#xe8ab;" d="m0 171v200q0 26 17 45h0l93 123q21 29 57 29h66q112 31 269 31 157 0 269-31h65q37 0 58-29l93-123h0q17-19 17-45v-200q0-29-21-49t-49-21h-864q-29 0-49 21t-21 49z m99 60q0-15 11-26t27-11h88q15 0 26 11t11 26-11 27-26 11h-88q-16 0-27-11t-11-27z m73 236q0-23 44-41t120-30 166-11 166 11 120 30 44 41-44 41-120 30-166 11-166-11-120-30-44-41z m146-236q0-15 11-26t26-11h11q15 0 26 11t11 26-11 27-26 11h-11q-15 0-26-11t-11-27z m85 236q0 10 29 17t70 8q40 0 69-8t29-17-29-17-69-8q-41 0-70 8t-29 17z" horiz-adv-x="1004.4" />
<glyph glyph-name="connected-object" unicode="&#xe8ac;" d="m0-31v761q0 37 26 62t61 26h616q36 0 62-26t25-62v-761q0-36-25-62t-62-26h-616q-36 0-61 26t-26 62z m179 294q0-59 29-109t79-79 108-29q90 0 154 64t63 153-63 153-154 64q-44 0-84-17t-69-47-46-69-17-84z m59 7q3 63 48 107t109 44q60 0 104-39t53-97q0-1 0-2t-1-2q0-21-15-36t-36-15q-21 0-35 14-55 54-130 54-54 0-97-28z m348 387q0-18 13-31t31-13 30 13 13 31-13 31-30 13q-19 0-32-13t-12-31z" horiz-adv-x="790.5" />
<glyph glyph-name="ruler" unicode="&#xe8ad;" d="m0 144q0-31 22-54l180-180q20-20 46-22t50 12l-96 96 41 41 97-97 42 41-98 97 41 41 97-96 42 40-97 98 40 40 98-96 39 39-98 96 42 42 97-97 41 41-97 97 41 41 97-97 41 41-97 97 41 41 97-97 41 41-97 98 41 40 98-97 41 42-98 97 41 41 96-95q13 22 10 48t-21 45l-180 180q-23 22-54 22t-55-23l-589-590q-23-22-23-54z" horiz-adv-x="922.9" />
<glyph glyph-name="vector" unicode="&#xe8ae;" d="m0 40l136 136 47-47 220 219q-31 45-26 100t44 94q39 39 94 44t99-26l221 220-48 48 135 135 136-135-136-136-47 47-142-142q66 16 123 16 101 0 193-39t164-110q13-12 13-30t-13-31-31-13-30 13q-60 59-136 91t-160 31q-97 0-183-42 14-39 5-82t-41-75q-32-31-75-41t-82 5q-38-78-42-164t27-169 94-146q13-13 13-30t-13-31q-13-13-30-13-17 0-30 13-96 96-131 224t-1 256l-143-142 47-48-135-135z m82 0l54-54 53 54-53 54z m787 788l53-55 54 55-54 53z" horiz-adv-x="1226.6" />
<glyph glyph-name="vector-pencil" unicode="&#xe8af;" d="m7 128q-16-16 5-57t58-79 77-59 58-4l223 224q-55 38-107 90-24 23-46 50t-34 42l-11 15z m271 237q-8 23 4 34 11 11 23 41t17 61l4 20q5 31 30 62t53 43l396 178q29 12 34 5t-18-30l-203-202q-42-43-52-53-21 10-46 6t-42-21q-23-22-23-54t23-55q23-23 54-23t55 23q17 17 21 42t-6 45q14 15 52 54l203 203q23 22 30 17t-6-34l-177-397q-12-28-43-52t-63-30l-20-4q-30-5-60-17t-41-23-35-3-45 30l-89 88q-22 22-30 46z" horiz-adv-x="889.2" />
<glyph glyph-name="at" unicode="&#xe8b0;" d="m0 340q0 197 130 334 136 144 350 144 175 0 288-98 121-105 121-278 0-135-77-233-76-97-174-97-50 0-78 31-28 31-28 65 0 1 1 4t0 5q0 1 1 5t0 6q-22-45-47-69-46-46-112-46-67 0-111 52-45 52-45 145 0 109 68 203 69 95 166 95 57 0 91-34 25-28 32-62l20 75h104l-71-260q-3-12-7-28t-5-19q-3-14-3-26 0-18 11-34 11-16 35-16 48 0 96 67 48 69 48 179 0 165-131 237-80 45-183 45-188 0-302-125-102-111-102-270 0-176 120-278 107-90 260-90 105 0 195 42 50 22 103 63l13 10q4 3 10 5t14 3 15-4 13-16q6-17 3-29t-8-19l-7-7q-77-66-169-101-92-35-189-35-229 0-355 155-104 128-104 304z m340-41q0-44 18-71 18-27 52-27 59 0 97 97 37 98 37 153 0 32-17 54-17 21-47 21-58 0-99-77-41-77-41-150z" horiz-adv-x="888.7" />
<glyph glyph-name="hash" unicode="&#xe8b1;" d="m2 207q4 25 25 42t46 16h149l36 170h-135q-28 0-46 21-17 22-12 51 5 25 26 42t46 16h149l31 150q6 26 26 42t46 17q30 0 47-21t11-51l-29-137h167l32 150q5 26 26 42t46 17q29 0 46-21 18-21 11-51l-29-137h136q28 0 46-21 17-22 11-51-5-25-25-42t-46-16h-149l-37-170h136q28 0 47-21 17-22 11-51-6-26-26-42t-46-17h-149l-32-150q-5-25-25-42t-46-16q-29 0-47 21-17 22-11 50l29 137h-167l-33-150q-5-25-25-42t-46-16q-28 0-46 21-17 22-12 50l30 137h-136q-29 0-46 22-18 20-11 51z m352 58h168l36 170h-168z" horiz-adv-x="912.1" />
<glyph glyph-name="female" unicode="&#xe8b2;" d="m0 534q0 58 23 111t60 90 91 61 111 22q76 0 142-38t104-103 38-143q0-99-61-176t-156-99v-79h96q28 0 48-20t19-47-19-49-48-20h-96v-95q0-28-20-48t-47-20-49 20-20 48v95h-95q-28 0-48 20t-19 49 19 47 48 20h95v79q-94 22-155 99t-61 176z m136 0q0-61 44-105t105-43 104 43 44 105-44 105-104 44-105-44-44-105z" horiz-adv-x="568.8" />
<glyph glyph-name="male" unicode="&#xe8b3;" d="m0 265q0 59 23 113t62 92 93 62 112 23q81 0 151-42l103 104h-47q-23 0-39 16t-17 39 17 39 39 16h201q23 0 39-16t17-39v-201q0-23-17-39t-39-17-39 17-16 39v48l-104-104q43-69 43-150 0-79-39-146t-106-107-147-39q-78 0-145 39t-106 107-39 146z m139 0q0-63 45-108t106-44q63 0 108 44t45 108-45 107-108 45q-62 0-106-45t-45-107z" horiz-adv-x="753.9" />
<glyph glyph-name="spread" unicode="&#xe8b4;" d="m0 493q0 57 41 98t98 41q58 0 99-41t40-98q0-40-21-73l282-281q19 12 39 17v388q-46 12-76 49t-30 87q0 57 41 98t99 40q57 0 98-40t40-98q0-49-30-87t-76-49v-388q20-5 39-17l282 281q-21 34-21 73 0 58 41 98t98 41 98-41 41-98-41-99-98-41q-37 0-72 22l-282-282q21-33 21-72 0-58-40-99t-98-41q-59 0-99 41t-41 99q0 39 21 72l-282 282q-35-22-72-22-57 0-98 41t-41 99z" horiz-adv-x="1222.7" />
<glyph glyph-name="king" unicode="&#xe8b5;" d="m2 597q9 42 45 65 36 24 78 15t66-45q18-28 16-61t-20-58q22-32 45-54t41-32 32-14 26-4q2 1 19 3 21 0 36 16t22 43 11 53 3 57q-32 10-52 37t-20 62q0 43 30 73t74 30 74-30 30-73q0-35-20-62t-52-37q0-31 3-57t11-53 22-43 36-16q2 0 6-1t7-1 6-1q12 0 26 4t32 14 41 32 45 54q-19 26-21 59t17 60q23 36 65 45t78-15q37-23 46-65t-15-78q-18-28-49-40t-62-4q-29-44-54-99t-34-89l-10-33q-7-32-15-81t-16-98-10-64q-5-28-37-50t-72-34-78-11q-38 0-79 11t-72 34-37 50q-2 14-9 64t-15 99-16 80q-4 14-11 37t-32 81-55 103q-32-8-63 4t-48 40q-24 36-15 78z" horiz-adv-x="908.2" />
<glyph glyph-name="anchor" unicode="&#xe8b6;" d="m-1 202q0 8 5 13l102 123 22-28 78-96q5-6 4-14t-7-12q-11-8-23 0l-23 19q16-60 63-101t113-54q6-1 11 0t10 7 6 20v389q0 10-6 16t-11 7l-6 1h-40q-19 0-33 13t-14 34 14 33 33 13h42q2 1 3 1t5 2 5 3 4 4 3 6 1 8v10q-31 14-49 42t-19 64q0 48 34 82t81 34 82-34 34-82q0-35-19-64t-50-42v-10q0-5 1-8t4-6 4-4 5-3 4-1 3-2h43q19 0 33-13t14-33q0-20-14-33t-33-14h-41q-2 0-6-1t-11-7-6-15v-390q0-13 6-20t11-8 10 0q67 15 114 55t63 101l-23-19q-6-5-13-4t-13 7q-8 12 0 23l78 96 21 27 103-122q4-6 4-15t-7-14q-6-5-14-5t-13 5l-30 25q-17-102-87-179t-171-102q-1-1-2-1-14-3-24-13t-14-21q-4-16-17-26t-29-10q-16 0-29 10t-16 26q-3 12-14 21t-24 13q-2 0-3 1-100 26-170 102t-88 179l-29-25q-6-6-15-5t-15 8q-5 5-5 13z m351 524q0-20 10-35v5q0 20 14 33t33 14 33-13 14-34v-5q11 16 11 35 0 23-17 40t-41 16-40-16-17-40z" horiz-adv-x="814.9" />
<glyph glyph-name="joystick" unicode="&#xe8b7;" d="m2-30q-4 31 5 76l44 207q24 90 79 90h122v395q0 33 46 57t111 23 111-23 46-57v-395h122q56 0 80-90l44-207q9-45 5-76t-20-51-34-29-38-9h-631q-20 0-39 9t-34 29-19 51z m172 222q0-51 69-86t166-36q98 0 166 36t69 86q0 26-21 49t-57 41v-89q0-34-46-57t-111-24-111 24-46 57v89q-36-17-57-41t-21-49z m153 546q0-18 24-31t58-12 58 12 24 31-24 30-58 12-58-12-24-30z" horiz-adv-x="818.4" />
<glyph glyph-name="spinner1" unicode="&#xe8b8;" d="m469 614v204q129 0 237-61t169-170 62-237h-204q0 72-36 133t-95 96-133 35z" horiz-adv-x="937.5" />
<glyph glyph-name="spinner2" unicode="&#xe8b9;" d="m0 350q1 30 22 51t51 21h128q29 0 51-21t21-51-21-51-51-21h-128q-30 0-52 21t-21 51z m116-280q0 29 22 50l91 91q21 21 51 21t50-20q21-22 21-52t-21-50l-91-91q-21-21-51-21t-50 21q-22 21-22 51z m0 560q0 30 21 51 21 21 51 21t51-21l91-91q21-21 21-51t-21-51-50-21-51 21l-92 91q-21 21-21 51z m281-677v129q0 30 21 51t51 21 51-21 21-51v-129q0-29-21-51t-51-21-51 21-21 51z m0 665v128q0 30 21 51t51 21q30 0 51-21t21-51v-128q0-30-21-51t-51-22q-30 0-51 21t-21 52z m190-458q0 30 21 52 21 21 50 21t51-21l91-91q21-21 21-51t-21-51q-21-21-51-21t-51 21l-90 91q-21 21-21 50z m0 379q0 30 21 51l90 91q21 21 51 21t51-21q21-21 21-51t-21-51l-91-91q-21-21-51-21t-50 21-21 51z m77-189q0 30 22 51t51 21h128q30 0 51-21t21-51-21-51-51-21h-128q-30 0-52 21t-21 51z" horiz-adv-x="937.5" />
<glyph glyph-name="github" unicode="&#xe8ba;" d="m0 305q0-117 35-187 38-74 117-109 80-38 163-47 75-9 162-9 38 0 94 3 48 3 101 13t92 26q44 19 81 50t58 73q34 70 34 187 0 134-77 224 16 45 16 95 0 66-29 123-58 0-103-21t-109-69q-76 18-158 18-89 0-173-20-64 51-110 71t-104 21q-28-57-28-123 0-50 15-96-77-90-77-223z m126-99q0 70 40 116t104 46q26 0 110-12 43-6 89-6t88 6q86 12 110 12 65 0 105-46t39-116q0-49-18-87-18-36-45-57t-69-34q-69-21-163-21h-95q-46 0-84 5-40 3-80 17t-67 33q-29 22-46 60t-18 84z m90 0q0-23 8-46 7-25 25-44t39-18q24 0 41 19 31 36 31 89 0 23-6 46-7 26-25 44t-41 18q-23 0-41-19-31-34-31-89z m361 0q0-23 7-46 8-25 25-44t40-18q24 0 41 19 31 36 31 89 0 21-7 46-7 26-25 44t-40 18q-24 0-40-19-32-34-32-89z" horiz-adv-x="937.5" />
<glyph glyph-name="github-circled" unicode="&#xe8bb;" d="m0 350q0 95 37 182t100 149 150 100 182 37 182-37 149-100 100-149 37-182-37-182-100-150-149-100-182-37-182 37-150 100-100 150-37 182z m198-31q0-66 19-107 24-44 67-63 46-21 93-26 40-5 93-5 30 0 54 1 62 3 110 22 57 24 80 71 19 42 19 107 0 76-44 128 9 25 9 54 0 37-16 70-33 0-60-12t-61-40q-45 11-91 11-52 0-99-11-37 28-63 40t-59 12q-17-33-17-70 0-25 9-55-43-50-43-128z m71-57q0 40 23 67t60 26q14 0 62-7 21-4 51-4 29 0 50 4 51 7 63 7 37 0 60-26t23-67q0-28-10-49-19-39-66-53-39-11-93-11h-54q-29 0-48 2-54 6-84 29-37 27-37 82z m52 0q0-15 4-26 4-15 14-25t23-11q13 0 24 11 17 21 17 51 0 15-4 27-4 14-14 25t-23 10q-13 0-23-11-18-21-18-51z m206 0q0-15 4-26 4-15 14-25t23-11q13 0 24 11 17 20 17 51 0 15-4 27-4 14-14 25t-23 10-23-11q-18-20-18-51z" horiz-adv-x="937.5" />
<glyph glyph-name="github-circled-alt" unicode="&#xe8bc;" d="m0 350q0 95 37 182t100 149 150 100 182 37 181-37 150-100 100-149 37-182-37-182-100-150-150-100-181-37-182 37-150 100-100 150-37 182z m184-197q0-32 18-53t47-29q26-7 59-7 122 0 122 102 0 25-13 42t-34 25q-2 0-17 5t-24 6q-48 12-48 35 0 23 27 28 42 8 67 39t24 73q0 12-5 28 23 7 26 8v68q-42-16-73-16-28 16-61 16-47 0-79-31t-33-78q0-29 17-57t40-36v-1q-21-10-21-47 0-29 23-42v-2q-62-21-62-76z m69 4q0 35 53 35 57 0 57-34 0-36-52-36-58 0-58 35z m7 256q0 49 42 49 19 0 30-13t11-35q0-47-41-47-42 0-42 46z m197 208q0-20 14-35t33-14 32 15 14 34q0 20-13 35t-33 15-33-15-14-35z m9-396h75q-1 22-1 49v204q0 23 1 42h-75q2-18 2-43v-207q0-25-2-45z m107 231l20 2h7q3-1 6-1v-1h-1v-119q0-41 7-66 11-33 38-44 16-7 36-7 34 0 59 14v66q-17-11-37-11-29 0-29 45v123h28q8 0 15 0t14-1v64h-57q0 45 1 56h-76q2-12 2-30v-26h-33v-64z" horiz-adv-x="937.5" />
<glyph glyph-name="github-circled-alt2" unicode="&#xe8bd;" d="m0 350q0-130 63-235 63-109 171-171t235-63q127 0 235 63 109 63 171 171t62 235q0 129-62 235-63 109-171 171t-235 62q-130 0-235-63-109-63-171-171t-63-234z m78 0q0 78 31 151t84 125q53 53 125 84t151 30 150-30 126-84q53-53 83-126t31-150q0-84-34-160t-97-132-142-80v137q0 52-42 80 103 10 150 53t48 136q0 72-45 121 9 27 9 51 0 36-16 66-33 0-59-10t-63-37q-46 10-94 10-55 0-103-11-37 26-63 37t-61 11q-16-30-16-66 0-25 9-51-45-48-45-121 0-93 48-136t151-52q-27-19-38-54-24-9-50-9-19 0-34 9-4 3-8 5t-7 7-7 6-6 8-5 6-6 8-5 7q-23 30-55 30-17 0-17-7 0-3 9-10 15-13 16-14 12-10 13-12 14-18 22-39 27-61 93-61 11 0 42 5v-103q-80 25-142 80t-96 132-35 160z" horiz-adv-x="937.5" />
<glyph glyph-name="twitter" unicode="&#xe8be;" d="m0 68q0-7 7-13 13-8 44-24 119-62 250-62 163 0 296 84 63 40 113 96t78 118 43 123 14 119v17q57 41 89 94 3 6 3 9 0 6-5 11t-11 5q-4 0-12-4-6-2-14-5t-15-5-8-3q13 15 26 39t14 35q0 6-5 11t-11 5q-4 0-8-3-56-29-104-40-59 56-141 56-84 0-143-59t-59-141q0-15 2-24-83 7-159 39t-138 88q-14 14-55 57-6 6-13 6-6 0-13-8-12-19-20-46t-7-54q0-73 45-127l-14 7q-12 5-18 5-8 0-14-5t-5-12q0-52 26-97t71-74l-5 1q-1 0-3 1t-3 1-1 0q-7 0-11-5t-5-11q0 0 1-5 17-51 55-86t90-48q-84-52-187-52-7 0-22 1-20 1-22 1-7 0-11-5t-5-11z" horiz-adv-x="937.5" />
<glyph glyph-name="twitter-circled" unicode="&#xe8bf;" d="m0 350q0 95 37 182t100 149 150 100 182 37 182-37 149-100 100-149 37-182-37-182-100-150-149-100-182-37-182 37-150 100-100 150-37 182z m190-199q0-5 4-8 7-5 27-16 73-37 153-37 100 0 181 51 39 25 70 60t48 73 26 76 9 73v11q35 26 54 58 2 3 2 6 0 4-3 7t-7 3l-7-3q-19-7-22-8 8 10 16 25t8 21q0 3-3 6t-7 3q-2 0-5-1-36-19-64-26-36 35-87 35-51 0-87-36t-36-87q0-6 1-15-105 10-181 79-14 13-34 35-4 4-9 4-5 0-7-5-18-24-18-62 0-44 29-78-1 0-10 3-6 4-10 4-5 0-8-3t-4-8q0-32 17-60t43-45h-2q-1 0-2 0-1 1-4 1-4 0-7-3t-3-7q0 0 1-3 10-31 34-53t55-29q-52-33-115-33-1 0-14 1-3 0-7 1t-6 0q-3 0-6-3t-3-7z" horiz-adv-x="937.5" />
<glyph glyph-name="facebook" unicode="&#xe8c0;" d="m0 350h97v-469h193v469h130l17 161h-146v81q0 18 2 28t8 20 19 13 35 4h81v161h-129q-112 0-161-53t-49-157v-97h-97v-161z" horiz-adv-x="437.5" />
<glyph glyph-name="facebook-circled" unicode="&#xe8c1;" d="m0 350q0 95 37 182t100 149 150 100 182 37 182-37 149-100 100-149 37-182-37-182-100-150-149-100-182-37-182 37-150 100-100 150-37 182z m351 0h52v-253h105v253h70l9 87h-79v44q0 20 6 27t29 8h43v87h-70q-61 0-87-29t-26-85v-52h-52v-87z" horiz-adv-x="937.5" />
<glyph glyph-name="gplus" unicode="&#xe8c2;" d="m0 57q0-39 17-68 30-55 105-82 63-26 136-26t133 20 100 52 60 74 22 87q0 63-34 108-26 36-69 68-15 11-32 28-34 28-34 55 0 32 45 73 15 13 37 36 19 21 32 54t12 72q0 51-22 96t-62 70h76l76 44h-246q-53 0-106-11-78-17-131-80t-53-141q0-82 59-138t145-55q8 0 39 3-2-6-9-24-4-11-4-25 0-38 36-84-37 0-84-7-110-18-169-60-34-25-55-64t-20-75z m104 26q0 34 16 61 27 47 94 68 58 18 120 18 9 0 28-2 1 0 16-11t20-13q14-9 36-27 1-2 9-9t13-12 8-10q2-2 3-5t4-6 5-7q6-9 10-19 7-24 7-43 0-35-15-61t-42-42q-50-30-120-30-76 0-139 35-33 17-53 47t-20 68z m61 563q0 57 30 94t81 38q36 0 66-22t48-60q36-74 36-145 0-59-26-92t-77-32q-28 0-55 14-45 26-76 91-27 57-27 114z m412-43h144v-145h72v145h144v72h-144v143h-72v-143h-144v-72z" horiz-adv-x="937.5" />
<glyph glyph-name="gplus-circled" unicode="&#xe8c3;" d="m0 350q0 95 37 182t100 149 150 100 182 37 182-37 149-100 100-149 37-182-37-182-100-150-149-100-182-37q-96 0-184 38h1q106 0 169 51t64 121q0 46-25 79-20 26-51 51-18 14-24 19-25 21-25 42 0 25 33 54 8 8 27 26 33 36 33 93 0 38-16 72t-46 52h56l56 32h-182q-37 0-77-8-59-13-98-59t-39-104q0-61 44-102t106-41q7 0 29 2 0-3-3-10t-3-8q-3-7-3-18 0-28 27-62-31-1-62-5-83-14-125-45-22-16-36-40t-18-47q-97 126-97 286z m172-282q0 27 12 45 19 33 69 49 41 14 89 14 11 0 21-1 2-1 26-18 1-1 8-5t11-9 7-6q2-1 7-6t10-10 6-7q1-2 9-13 5-8 7-14 6-18 6-32 0-53-43-77-37-21-89-21-55 0-102 25-24 13-39 35t-15 51z m46 416q0 42 22 70t59 28q27 0 49-17t36-44q26-56 26-107 0-43-19-68t-58-25q-20 0-40 11-34 21-56 68-19 42-19 84z m304-33h106v-106h53v106h107v53h-107v107h-53v-107h-106v-53z" horiz-adv-x="937.5" />
<glyph glyph-name="linkedin" unicode="&#xe8c4;" d="m0 57v586q0 72 52 124t124 51h585q73 0 125-51t51-124v-586q0-73-51-124t-125-52h-585q-73 0-124 52t-52 124z m156 0q0-8 6-14t14-6h117q8 0 14 6t5 14v390q0 8-5 14t-14 6h-117q-8 0-14-6t-6-14v-390z m0 529q0-31 22-53t53-22q33 0 54 22 22 22 22 53t-22 54-54 22-53-22-22-54z m195-529q0-8 10-14t18-6h111q7 0 12 6t6 14v213q0 85 69 85 29 0 38-13t10-45v-240q0-8 7-14t16-6h113q8 0 14 6t6 14v265q0 77-44 117t-125 41q-55 0-96-28-8-5-8-7 0 22-21 22h-108q-10 0-19-5t-9-12v-393z" horiz-adv-x="937.5" />
<glyph glyph-name="linkedin-circled" unicode="&#xe8c5;" d="m0 350q0 95 37 182t100 149 150 100 182 37 182-37 149-100 100-149 37-182-37-182-100-150-149-100-182-37-182 37-150 100-100 150-37 182z m227-151q0-38 27-64t64-26h302q37 0 64 26t27 64v302q0 38-27 64t-64 26h-302q-38 0-64-26t-27-64v-302z m81 0v201q0 4 3 7t7 3h60q4 0 7-3t3-7v-201q0-4-3-7t-7-3h-60q-4 0-7 3t-3 7z m0 273q0 16 11 28t28 11q16 0 27-11t12-28-12-27q-11-12-27-12-16 0-28 11t-11 28z m101-273v202q0 4 4 7t9 2h56q11 0 11-11 0 2 4 4 22 14 50 14 41 0 64-21t23-60v-137q0-4-3-7t-7-3h-59q-4 0-8 3t-3 7v123q0 17-6 24t-19 7q-36 0-36-44v-110q0-4-3-7t-6-3h-58q-4 0-9 3t-4 7z" horiz-adv-x="937.5" />
<glyph glyph-name="dribbble" unicode="&#xe8c6;" d="m0 351q0 95 37 181t99 149 149 100 182 37q96 0 183-37t150-100 100-149 37-181q0-95-37-182t-100-150-150-100-183-38-182 38-149 100-99 150-37 182z m78-20q2-69 29-132t75-113q58 88 141 152t185 99q-12 22-24 55-179-64-351-64-9 0-27 2t-28 1z m3 78h52q165 0 316 55-60 114-161 233-82-44-137-120t-70-168z m158-377q109-73 228-73 66 0 124 21-13 143-58 282-90-30-165-89t-129-141z m128 694q90-113 155-233 118 52 216 138-54 53-124 81t-147 28q-45 0-100-14z m190-306q4-10 12-32t13-31q77 15 128 15 58 0 149-21 0 113-69 219-111-92-233-150z m52-138q38-118 57-268 71 41 119 109t66 151q-72 17-141 17-54 0-101-9z" horiz-adv-x="937.5" />
<glyph glyph-name="dribbble-circled" unicode="&#xe8c7;" d="m0 350q0 95 37 182t100 149 150 100 182 37 182-37 149-100 100-149 37-182-37-182-100-150-149-100-182-37-182 37-150 100-100 150-37 182z m183 1q0-59 22-112t61-91 90-62 112-22q78 0 144 38t104 105 38 144q0 77-38 143t-104 104-144 38q-59 0-112-22t-90-61-61-91-22-111z m47-13q6 0 17-1t16 0q105 0 215 39 6-16 14-34-61-22-112-61t-87-92q-61 63-63 149z m1 48q10 56 44 103t84 73q60-72 98-142-91-34-194-34h-32z m97-230q69 103 180 140 28-83 35-173-33-12-75-12-73 0-140 45z m78 424q36 9 62 9 95 0 165-67-60-53-132-85-38 71-95 143z m116-187q73 33 143 91 42-63 42-133-55 12-91 12-30 0-78-8-2 5-7 19t-9 19z m32-84q30 5 62 5 42 0 86-11-11-51-40-92t-73-66q-12 94-35 164z" horiz-adv-x="937.5" />
<glyph glyph-name="instagram" unicode="&#xe8c8;" d="m0 57v287h215q24-83 94-136t160-54 159 54 94 136h215v-287q0-73-51-124t-125-52h-585q-73 0-124 52t-52 124z m0 433v153q0 72 52 124t124 51h585q73 0 125-51t51-124v-153h-215q-24 84-94 137t-159 54-160-54-94-137h-215z m323-72q0-61 42-104t104-43q61 0 103 43t43 104-43 103-103 43q-61 0-104-43t-42-103z" horiz-adv-x="937.5" />
<glyph glyph-name="instagram-circled" unicode="&#xe8c9;" d="m0 350q0 95 37 182t100 149 150 100 182 37 182-37 149-100 100-149 37-182-37-182-100-150-149-100-182-37-182 37-150 100-100 150-37 182z m269-130q0-31 22-53t53-22h249q32 0 53 22t22 53v123h-92q-9-36-39-59t-68-23-68 23-41 59h-91v-123z m0 185h91q11 36 41 58t68 23 68-23 39-58h92v65q0 31-22 53t-53 21h-249q-32 0-53-21t-22-53v-65z m137-31q0-26 18-44t45-18 44 18 18 44-18 44-44 19-45-19-18-44z" horiz-adv-x="937.5" />
<glyph glyph-name="soundcloud" unicode="&#xe8ca;" d="m0 164q0-20 14-30t30-7q16 3 22 11t6 26v141q0 15-11 26t-25 10q-15 0-25-10t-11-26v-141z m112-61q0-14 10-21t26-7q16 0 26 7t10 21v330q0 15-10 25t-26 11q-15 0-25-11t-11-25v-330z m112-15q0-14 10-22t27-7q15 0 25 7t10 22v301q0 15-10 26t-25 10q-15 0-26-10t-11-26v-301z m112-2q0-27 36-27t37 27v488q0 41-25 47-16 4-32-10t-16-37v-488z m114-14v531q0 25 16 30 32 8 65 8 74 0 139-35t104-96 46-134q30 13 63 13 69 0 117-49t49-116q0-68-49-116t-116-49l-425 1q-4 1-6 5t-3 7z" horiz-adv-x="1048.8" />
<glyph glyph-name="soundcloud-circled" unicode="&#xe8cb;" d="m0 350q0 95 37 182t100 149 150 100 182 37 182-37 149-100 100-149 37-182-37-182-100-150-149-100-182-37-182 37-150 100-100 150-37 182z m165-86q0-11 8-17t18-4q9 2 12 6t3 15v82q0 9-5 15t-15 6-15-6-6-15v-82z m65-35q0-8 6-12t14-5q10 0 16 5t6 12v191q0 8-6 15t-16 6q-8 0-14-6t-6-15v-191z m64-9q0-16 22-16 20 0 20 16v175q0 8-6 14t-14 6q-9 0-15-6t-7-14v-175z m66-1q0-15 20-15 22 0 22 15v283q0 23-15 26-9 3-18-5t-9-22v-282z m66-7q-1-6 5-8h245q40 0 68 27t29 68q0 40-29 68t-68 28q-18 0-36-8-6 65-54 109t-114 45q-19 0-38-5-8-3-8-17v-307z" horiz-adv-x="937.5" />
<glyph glyph-name="mfg-logo" unicode="&#xe8cc;" d="m0 537q0-44 32-75t77-31h125v-374l574 374h225q45 0 77 31t31 75q0 44-31 75t-77 31h-291l-291-190v190h-342q-45 0-77-31t-32-75z" horiz-adv-x="1142.1" />
<glyph glyph-name="mfg-logo-circled" unicode="&#xe8cd;" d="m0 350q0 95 37 182t100 149 150 100 182 37 182-37 149-100 100-149 37-182-37-182-100-150-149-100-182-37-182 37-150 100-100 150-37 182z m163 46q0-24 17-41t41-17h67v-207l308 207h120q24 0 41 17t17 41-17 41-41 17h-156l-155-105v105h-184q-24 0-41-17t-17-41z" horiz-adv-x="937.5" />
<glyph glyph-name="search-1" unicode="&#xe8ce;" d="m680 256c-55-55-126-83-197-83-65 0-129 23-182 66l-51-125-130-130c-14-10-29-15-45-15-41 0-75 37-75 77 0 16 5 32 15 45l129 130 126 51c-44 52-66 117-66 182 0 152 127 277 279 277 150 0 277-128 277-278 0-72-26-144-80-197z m-319 75c34-33 78-50 122-50 92 0 170 77 170 172 0 93-79 170-170 170-94 0-172-79-172-170 0-45 17-89 50-122z" horiz-adv-x="760" />
<glyph glyph-name="mail-1" unicode="&#xe8cf;" d="m580 306l258-267-789 0 259 264 135-127z m-517 355l760 0-380-362z m566-309l257 242 0-508z m-629-266l0 508 259-243z" horiz-adv-x="886" />
<glyph glyph-name="heart-1" unicode="&#xe8d0;" d="m380 18l-285 283c-66 65-95 137-95 200 0 109 73 182 183 182 102 0 137-48 197-117 60 69 95 117 198 117 110 0 182-73 182-182 0-63-29-135-95-200z" horiz-adv-x="760" />
<glyph glyph-name="star-1" unicode="&#xe8d1;" d="m320 445l99 303 99-303 320 0-259-187 99-306-259 188-260-188 100 306-259 187 320 0z" horiz-adv-x="838" />
<glyph glyph-name="user-1" unicode="&#xe8d2;" d="m897-41l-895 0s-4 11 0 71c51 27 292 92 306 98l1 45 19 5s7 70 7 81c0 0-28 56-35 89 0 0-23 0-26 24-4 25 0 41-6 60-4 17 10 36 21 32 0 0-25 129 0 164 18 25 71 89 198 111 0 0 31 4 41-1 7-3 6-5-9-21 0 0 65-40 86-104 13-40 8-126 0-149 0 0 19 4 17-20-4-39-5-110-33-96 0 0-1-80-25-96 0 0-7-63 4-65l16 0s6-52 19-65c0 0 267-69 294-99 1-33 0-64 0-64z" horiz-adv-x="897" />
<glyph glyph-name="user-woman" unicode="&#xe8d3;" d="m240 198c0 32-25 68-25 68s-2-13-17-7c-14 7-28 26-32 42-1 15-13 43-18 49-5 10-2 30 22 33 0 0-9 18-1 27 0 0-25-1-14 21 0 0-51 18-9 59 0 0-27 29 5 34 0 0-47 54 17 76 0 0-58 141 47 148 55 7 93-27 143-48 0 0 68 56 107 49 69-14 89-81 49-140 42 11 57-55 24-80 0 0 20-23 0-48 0 0 30-42-8-60 0 0-6-25-15-36 0 0 16 3 21-10 7-15 9-27-3-47-13-19-15-32-20-43-4-10-8-41-35-24-38-46-50-120-25-185l6-11c86-17 191-36 241-57l0-58-700 0 0 48c41 27 126 48 209 67 11 44 32 44 31 133z" horiz-adv-x="700" />
<glyph glyph-name="user-pair" unicode="&#xe8d4;" d="m903 186c0 32-25 68-25 68s-3-13-18-7c-14 7-27 26-31 42-1 15-14 43-19 49-5 10-1 30 23 33 0 0-9 18-2 27 0 0-25-1-13 21 0 0-52 18-9 59 0 0-28 29 5 34 0 0-48 54 16 76 0 0-57 141 48 148 55 7 92-27 142-48 0 0 69 56 108 49 68-14 88-81 48-140 43 11 58-55 24-80 0 0 20-23 0-48 0 0 30-42-7-60 0 0-7-25-15-36 0 0 16 3 21-10 6-15 9-27-4-47-12-19-15-32-20-43-4-10-7-41-35-24-37-46-50-120-25-185l6-11c87-17 192-36 242-57l0-58-700 0 0 3-663 0s5 62 58 88c53 27 255 84 270 90l1 47 20 5s6 75 6 85c0 0-29 60-36 92 0 0-25 0-29 28-2 26 0 42-5 61-4 19 10 39 23 35 0 0-27 134 0 172 18 27 73 93 206 117 0 0 32 2 44-2 8-2 7-5-10-22 0 0 68-43 90-110 15-41 8-131 0-155 0 0 21 4 18-21-3-40-6-115-33-103 0 0-2-81-28-99 0 0-6-66 5-68l16 0s8-54 20-68c0 0 62-25 132-41 30-8 67-10 106-9 12 34 30 41 29 123z" horiz-adv-x="1363" />
<glyph glyph-name="video-alt" unicode="&#xe8d5;" d="m0 665l1313 0 0-630-1313 0 0 630z m391-529l0 69-188 0 0-69 188 0z m0 175l0 68-188 0 0-68 188 0z m0 175l0 67-188 0 0-67 188 0z m720-350l0 69-188 0 0-69 188 0z m0 175l0 68-188 0 0-68 188 0z m0 174l0 68-188 0 0-68 188 0z" horiz-adv-x="1313" />
<glyph glyph-name="videocam-1" unicode="&#xe8d6;" d="m741 414l255 159 0-445-255 158 0 128z m-741-314l0 500 683 0 0-500-683 0z" horiz-adv-x="996" />
<glyph glyph-name="videocam-alt" unicode="&#xe8d7;" d="m471-30c-21 0-35 15-41 39l-55 201 175 0 69-240-148 0z m367 610l120 88 0-347-120 89 0 170z m-45-1l0-169-144 0 0-65c0-46-35-81-81-81-9 0-250-9-323 1-54 7-245 64-245 146l0 169c0 80 176 135 246 144 88 11 313 2 322 2 46 0 81-36 81-80l0-67 144 0z m-569-197c40 0 72 33 72 73s-32 73-72 73-73-33-73-73 33-72 73-72z" horiz-adv-x="958" />
<glyph glyph-name="camera-1" unicode="&#xe8d8;" d="m554 275c0-54-44-98-98-98s-98 44-98 98 45 97 98 97 98-44 98-97z m-321 362l678 0 0-634-911 0 0 634 143 0 0 60 90 0 0-60z m392-362c0 93-76 170-169 170-93 0-170-77-170-170s77-170 170-170c93 0 169 76 169 170z m240 126l0 190-819 0 0-190 250 0c38 47 95 77 160 77 64 0 122-30 159-77l250 0z" horiz-adv-x="911" />
</font>
</defs>
</svg>
